<?xml version="1.0" encoding="utf-8"?>
<!-- Generator: Adobe Illustrator 26.0.1, SVG Export Plug-In . SVG Version: 6.00 Build 0)  -->
<svg version="1.1" id="Capa_1" xmlns="http://www.w3.org/2000/svg" xmlns:xlink="http://www.w3.org/1999/xlink" x="0px" y="0px"
	 viewBox="0 0 839.9 640.8" style="enable-background:new 0 0 839.9 640.8;" xml:space="preserve">
<style type="text/css">
	.st0{fill:#FFFFFF;}
</style>
<g>
	<path class="st0" d="M437.9,492.8c0.4-0.2,0.8-0.3,1.5-0.6c0.3,2.5,0.6,5,1,7.5c0.8,6.9,1.6,13.8,1.5,20.7
		c-0.1,3.9,0.2,7.8,0.2,11.7c0,1.1-0.1,2.2-0.3,3.2c-0.2,1.3,0.4,2.1,1.7,2.5c0.2-2.4,0.4-4.6,0.6-6.9c0-0.4,0-0.9,0.1-1.3
		c0.3-4.1,0.9-8.2,0.9-12.2c0-4.6-0.6-9.3-1-13.9c-0.2-2.1-0.5-4.1-0.6-6.2c0-0.3,0.2-0.5,0.4-0.8c0.2,0.2,0.5,0.5,0.5,0.7
		c0.2,2,0.3,3.9,0.5,5.9c0.2,1.8,0.4,3.5,0.7,5.3c0.1,0.5,0.5,0.9,1.1,1.2c0,2.9,0,5.7,0,8.6c0,1.1-0.3,2.1-0.5,3.5
		c0.1,0.3,0.3,1,0.3,1.7c-0.1,3-0.3,6-0.4,9c0,1.8,0.2,3.6,0.2,5.3c0,0.3,0,0.6-0.3,0.9c-1.7-5.1,0-10.3-0.6-15.5
		c-0.2,1.9-0.4,3.9-0.5,5.8c-0.2,2.8-0.4,5.5-0.5,8.3c0,0.5,0.4,1.3,0.9,1.6c1.1,0.8,2.3,1.3,3.6,2.1c0.8-8.9,0.9-17.7,0.4-26.5
		c0.2,0,0.4,0,0.7,0v27c2.6,0.6,5.4,1.6,8.4,2c6.4,0.8,12.7,0.4,19.1-0.5c6.1-0.9,11.7-3.3,17.2-5.9c2.3-1.1,4.6-2.3,6.8-3.6
		c0.4-0.2,0.8-1,0.8-1.5c-0.4-6.3-0.8-12.5-1.3-18.8c-0.2-2.9-0.3-5.8-0.4-8.7c-0.3-5.7-0.6-11.3-0.8-17c-0.1-2.6,0-5.1-0.2-7.7
		c-0.4-6,0.4-11.9,0.8-17.9c0.5-8.2,3.1-16.1,4.5-24.2c0.9-5.1,2-10.2,3.1-15.3c0-0.2,0-0.4,0-0.7c-2.1,0.5-4.1,1.2-5.3,3.1
		c-1.3,2-3.3,2.6-5.3,3.3c-4.5,1.5-8.3,0.3-11.2-3.4c-0.2-0.2-0.4-0.5-0.6-0.7c-0.1-0.1-0.2-0.2-0.4-0.3c-2.9,2.5-6.5,2.3-9.8,2.5
		c-7.5,0.3-14.9,0.1-22.4-0.1c-2.8-0.1-5.6-0.6-8.4-0.9c0.7-2.1,0.8-2,2.7-1.9c5.1,0.4,10.3,1,15.4,0.9c6.1-0.1,12.1-0.8,18.2-1.3
		c1.1-0.1,2.1-0.4,3.2-0.6c-0.5-1.5-1.2-2.8-1.5-4.2c-0.6-2.5-0.8-5.1-1.3-7.7c-0.8-4-1.7-7.9-2.8-11.8c-0.7-2.4-2.1-2.8-4.5-2.7
		c-5.3,0.3-10.7,0.3-16,0.4c-2.1,0-4.2,0-6.2-0.1c-3.3-0.2-6.6-0.3-9.9-0.7c-3.8-0.5-7.6-1.1-11.4-1.9c-2-0.4-4-1.4-6.3-2.2
		c-0.1,1.5-0.4,3-0.4,4.5c-0.1,4.6-0.1,9.2,0,13.8c0.1,2.7,0.6,5.3,1,7.9c0.2,1.4,1,2,2.4,2.1c1.1,0,2.1,0.3,3.1,0.5
		c0,0.3,0.1,0.4,0.1,0.5c-1.1,2.3-1.1,2.4-3.6,1.7c-1.5-0.4-1.8,0.1-1.7,1.4c0.1,0.8,0.2,1.6,0.3,2.3c0.2,1.3,0.2,2.5-1.5,3.6
		c-0.5-4.4-1.2-8.6-1.5-12.8c-0.3-4.7-0.4-9.4-0.3-14c0-3.7,0.3-7.4,0.5-11.1c0.1-1.6-0.1-3.1,0.1-4.7c0.1-1.3,0.4-2.7,1-3.8
		c1.5-2.7,3.8-4.5,6.7-5.3c1.1-0.3,2.3,0.1,3.5,0c0.5,0,1.2-0.2,1.4-0.5c2.1-3.7,9.7-5.6,13.1-2.9c1,0.8,1.7,0.7,2.6-0.3
		c2.4-2.6,5.3-4.8,8.7-5.8c4.3-1.3,8.5-0.2,12.4,2c1.8,1.1,3.5,2.5,5.4,3.8c0.1-0.1,0.6-0.5,1.1-0.9c3.5-2.6,8.3-2.9,12.1-0.5
		c1.2,0.7,2.1,0.8,3.3,0.2c2.7-1.5,5.6-1,8.4-0.4c1.5,0.3,3.1,0.7,4.5,1.3c5.1,2.2,8.4,8.9,6.3,14.4c-0.7,1.9-0.5,3.2,0,4.9
		c0.5,1.6,0.6,3.3,0.5,5c-0.3,3.6-0.7,7.3-1.2,10.9c-0.4,3-1.3,5.9-1.5,8.9c-0.2,3.1-1.7,5.9-2,9c-0.3,3.1-1.2,6.1-1.8,9.2
		c-0.6,3.1-1.3,6.2-1.9,9.3c-0.9,4.4-2,8.8-2.5,13.3c-0.6,6-0.9,12.1-0.9,18.2c0,8.5,0.3,17,0.6,25.5c0.2,5.4,0.7,10.8,1,16.1
		c0.2,3.7,0.4,7.4,0.6,11.1c0,0.3,0,0.6,0.1,0.9c1.6,3.3-1.1,4.6-3.1,6c-7.5,5.2-16.1,7.9-25.1,8.7c-7.4,0.6-15,0.7-22.3-1.2
		c-4.5-1.1-8.8-2.7-12.5-5.5c-0.6-0.5-1-1.6-1-2.4c0.1-3.6,0.5-7.2,0.7-10.8c0.1-1.1,0-2.2,0-3.4c-0.5,0.1-0.8,0.2-1.3,0.3
		c0-0.9,0-1.7,0-2.5c0.4-7.6,0-15.2-1-22.8C438,495.6,438,494.2,437.9,492.8L437.9,492.8z M427.1,389.6c0,0.1,0,0.2,0,0.4
		c0.4,0.1,0.8,0.2,1.3,0.3c1.8,0.5,3.5,1.1,5.3,1.5c4.5,1,8.9,2.4,13.5,2.8c5.1,0.5,10.4,0.1,15.5,0.5c3.4,0.3,6.7-0.4,10-0.7
		c3.5-0.4,5.7,0.9,6.9,4.3c0.9,2.6,1.5,5.3,2.1,8c0.6,2.9,0.9,6,1.4,8.9c0.7,4.5,3.1,8,6.7,10.6c3.6,2.6,12.6,0.8,13.6-6.8
		c0.6-4.5,1.4-9,0.7-13.6c-0.5-3.1-1-6.2-1.7-9.3c-0.4-1.7-0.4-2.1,1.4-2.3c2.2-0.3,3.6-1.6,4.6-3.4c0.2-0.3,0.4-0.6,0.7-0.9
		c1.5-1.5,2.4-3.1,2-5.4c-0.5-2.8-2.3-4.8-4.1-6.7c-3.2-3.2-9-5.2-13.3-2.5c-1,0.6-2.1,0.6-3.1,0c-2.4-1.4-5.1-1.6-7.8-1.7
		c-2.3,0-4,1.3-5.5,3c-0.3,0.3-0.8,0.7-1.1,0.7c-0.4-0.1-0.8-0.6-1-1c-0.4-0.5-0.5-1.2-1-1.5c-3.4-2.5-7.3-3.9-11.4-4.6
		c-0.6-0.1-1.3-0.1-1.9,0c-4.3,1.2-8.2,3-10.4,7.2c-0.5,0.9-1,0.8-1.6,0.1c-0.5-0.6-1.1-1.2-1.7-1.5c-4.6-2.4-9.9-0.2-12,4.8
		c-0.1,0.3-0.5,0.6-0.8,0.7c-0.1,0-0.6-0.4-0.6-0.6c-0.1-1.3-1.2-1.4-2-1.3c-3.6,0.3-8.3,3.7-8.1,8.2c0.1,1.5,0.5,1.8,1.8,1.7
		c-0.5-2.6,0.7-5.6,3-6.6c1-0.4,2.2-0.4,3.3-0.4c0.3,0,0.6,0.7,0.8,1c-0.3,0.2-0.7,0.5-1,0.4c-2.6-0.6-3.6,1.3-4.7,3
		c-0.4,0.7-0.2,1.2,0.7,1.3c0.4,0,0.7,0.3,1.1,0.5c-0.3,0.3-0.6,0.6-0.9,0.8C427.6,389.4,427.3,389.5,427.1,389.6 M509.8,392.2
		c-0.7,0.6-1.3,1.2-1.9,1.7c-0.7,0.6-1.5,1.4-2.3,1.5c-1.7,0.3-1.6,1.1-1.4,2.5c0.6,3.7,1.2,7.4,1.4,11.1c0.2,2.8-0.2,5.6-0.3,8.4
		c0,0.6-0.5,1.7,0.8,1.7c1.1,0,2.5,0.1,2.9-1.3c0.5-1.8,0.9-3.7,1-5.6c0.4-5.1,0.8-10.2,1-15.4C511,395.4,511.3,393.7,509.8,392.2"
		/>
	<path class="st0" d="M495.1,498c0-2.8,0-5.5,0-8.3c0-4.4-0.2-8.7-0.1-13.1c0.1-4.8,0.5-9.6,0.8-14.5c0.2-2.5,0.2-4.9,0.7-7.3
		c0.8-4.3,1.9-8.5,3-12.7c1.2-4.6,2.4-9.3,3.6-13.9c0.1-0.6,0-1.2,0.2-1.8c0.1-0.5,0.4-1.1,0.7-1.2c0.4-0.1,1,0.3,1.3,0.6
		c0.8,1,0.8,2.1,0.5,3.4c-1.1,4.9-2.2,9.7-3.3,14.6c-0.9,4-2,8-2.7,12.1c-0.8,4.7-1.3,9.5-1.6,14.3c-0.3,4.1-0.1,8.3-0.1,12.4
		c0,4.3,0,8.7,0,13c0,1.2,0.3,2.5,0.3,3.7c0,0.7-0.2,1.5-0.6,2.1c-0.2,0.4-0.9,0.7-1.3,0.6c-0.4-0.1-0.8-0.7-0.9-1.1
		c-0.2-1-0.2-2-0.2-3C495.2,498,495.2,498,495.1,498"/>
	<path class="st0" d="M500.4,430.7c-0.9,3.6-1.9,6.9-2.7,10.2c-1.2,5.1-2.7,10.1-3.4,15.3c-0.7,4.9-0.7,10-0.9,15
		c-0.1,4.1-0.1,8.2-0.1,12.3c0.1,4.5,0.3,9.1,0.5,13.6c0.1,1.1,0.5,2.1,0.6,3.2c0,0.6-0.4,1.2-0.6,1.8c-0.5-0.3-1.3-0.5-1.5-1
		c-0.4-0.9-0.6-1.9-0.7-2.8c-0.5-5-1.1-10-1.4-15c-0.2-2.8,0.2-5.6,0.3-8.4c0.1-3.5,0-7.1,0.2-10.6c0.2-3.6,0.7-7.3,1-10.9
		c0.2-2.2,0.4-4.3,0.7-6.5c0.5-2.6,1.2-5.2,1.8-7.7c0.7-2.8,1.4-5.6,2.1-8.3c0.2-1,1.7-2.1,2.7-1.7
		C499.8,429.2,500,430.1,500.4,430.7"/>
	<path class="st0" d="M487.6,482.6c0.9-8.1-0.7-16.4,1.8-24.3c0.2,0,0.3,0,0.5,0c0,0.3,0.2,0.7,0.1,1c-1.2,5.3-0.7,10.7-1,16.1
		c-0.3,6.3,0.7,12.4,1.1,18.6c0.1,2.3,0.3,4.7,0.3,7c0,1-0.6,2-0.5,2.9c0.4,4.3,0.9,8.5,1.3,12.8c0.4,4.2,0.7,8.4,1,12.7
		c0,0.4,0.4,0.7,0.3,1.1c0,0.4-0.3,0.9-0.5,1.3c-0.4-0.3-0.9-0.4-1-0.8c-0.2-0.6-0.2-1.4-0.3-2c-0.8-7.4-1.5-14.7-2.3-22.1
		c-0.5-5.2-1.1-10.3-1.6-15.5c-0.4-4.3-0.9-8.5-1.1-12.8c-0.1-4.3,0-8.6,0.2-12.9c0.2-7.4,2.5-14.4,3.6-21.6c0.4-2.5,0.3-5,0.4-7.5
		c0-1.1-0.1-2.2-0.1-3.3c0-0.3,0.2-0.7,0.3-1c0.3,0.2,0.9,0.3,1,0.5c0.3,1.1,0.6,2.2,0.6,3.3c-0.1,2.7-0.1,5.4-0.5,8.1
		c-0.6,3.7-1.6,7.3-2.3,11c-0.6,3.3-1.1,6.5-1.3,9.8c-0.3,4.3-0.3,8.7-0.3,13.1C487.1,479.5,487.4,481.1,487.6,482.6 M488,484.1
		c-0.1,0-0.3,0-0.4,0c0.4,4.2,0.7,8.4,1.1,12.6c0.2,0,0.4,0,0.6-0.1C488.8,492.5,488.4,488.3,488,484.1"/>
	<path class="st0" d="M488.4,438.4c-0.6,2.9-1.4,5.7-1.9,8.6c-0.7,4.1-1.5,8.3-1.8,12.5c-0.4,4.8-0.3,9.6-0.5,14.5
		c-0.1,2.1-0.3,4.1-0.2,6.2c0.1,3.2,0.5,6.5,0.8,9.7c0.4,4.9,0.6,9.8,1,14.6c0.5,6.1,1,12.3,1.6,18.5c0.3,3.2,0.7,6.4,1,9.5
		c0,0.4-0.4,0.8-0.6,1.2c-0.3-0.3-0.8-0.7-0.8-1c-0.3-2.4-0.6-4.9-0.8-7.3c-0.4-4.6-0.7-9.3-1.1-13.9c-0.4-4.1-0.8-8.2-1.2-12.2
		c-0.3-3.3-0.4-6.7-0.9-10c-0.6-4.8-0.8-9.6-0.5-14.5c0.4-5.4,0.1-10.8,0.7-16.2c0.6-5.4,1.9-10.7,2.8-16c0.6-3.7,0.6-7.5-0.4-11.2
		c-0.2-0.6-0.4-1.2-0.4-1.7c0-0.5,0.3-0.9,0.4-1.4c0.4,0.4,1.1,0.7,1.2,1.1c0.4,2.1,0.8,4.2,1.1,6.4c0.1,0.9,0.1,1.8,0.1,2.7
		C488.1,438.4,488.3,438.4,488.4,438.4"/>
	<path class="st0" d="M438,492.8c-0.3-1-0.7-2-0.9-3c-1.2-6.1-2.4-12.3-3.6-18.5c-0.8-3.8-1.8-7.5-2.5-11.3
		c-0.2-0.8,0.2-1.7,0.3-2.5c0.2,0,0.4,0,0.6,0c0.4,1.4,0.8,2.8,1.2,4.2c1,4.5,2.1,9,3,13.6c1,4.8,1.9,9.6,2.8,14.4
		c0.1,0.6-0.3,1.3-0.5,2C438.1,492.1,438,492.5,438,492.8L438,492.8z"/>
	<path class="st0" d="M466,434.9c0.4,4.5,0.9,9,1.3,13.5c0.4,4.1,0.6,8.3,1,12.4c0.2,2.6,0.5,5.2,0.6,7.8c0,0.5-0.5,1-0.7,1.5
		c-0.2-0.5-0.5-1-0.5-1.5c-0.1-1.2-0.1-2.4-0.2-3.6c-0.6-6.5-1.3-13.1-1.8-19.6c-0.3-4-0.5-8-0.8-12c0-0.3-0.1-0.7-0.1-1
		c0.1-0.4,0.4-0.8,0.6-1.3c0.3,0.4,0.8,0.8,0.9,1.3c0.1,0.8,0,1.6-0.1,2.4C466.1,434.9,466,434.9,466,434.9"/>
	<path class="st0" d="M481.5,462.3c0.1,0.3,0.2,0.5,0.2,0.8c-1.2,4.8-0.7,9.7-0.4,14.6c0.4,5.9,1,11.8,1.4,17.7
		c0.3,3.4,0.5,6.8,0.7,10.2c0,0.4-0.2,0.7-0.3,1.1c-0.2,0-0.3,0-0.5,0c-0.2-1.8-0.5-3.6-0.7-5.5c-0.6-7.1-1.2-14.3-1.6-21.5
		c-0.3-4.7-0.2-9.4-0.2-14.1c0-1.2,0.4-2.3,0.7-3.5C481.1,462.3,481.3,462.3,481.5,462.3"/>
	<path class="st0" d="M446.1,496.5c-3.3-15.2-6.7-30.2-10-45.2C437.5,452.5,446.7,495.3,446.1,496.5"/>
	<path class="st0" d="M441,489.1c-3.2-11.4-5-23-7.3-34.6c0.2,0,0.5-0.1,0.7-0.1c0.8,3.6,1.6,7.3,2.4,10.9
		c1.4,6.4,2.8,12.7,4.1,19.1c0.3,1.2,0.6,2.3,0.9,3.5c0.1,0.4-0.2,0.9-0.3,1.3C441.3,489.1,441.1,489.1,441,489.1"/>
	<path class="st0" d="M476.9,475.6c0.1,1.2,0.3,2.4,0.4,3.5c0.2,3.7,0.2,7.5,0.5,11.2c0.3,4.5,0.9,9,1.3,13.5c0.2,1.7,0.3,3.3,0.4,5
		c0,0.3-0.2,0.6-0.4,0.9c-0.2-0.3-0.6-0.5-0.6-0.8c-0.4-4.7-0.8-9.3-1.1-14c-0.4-6-0.8-12-1.1-18c0-0.5,0.1-0.9,0.1-1.4
		C476.5,475.6,476.7,475.6,476.9,475.6"/>
	<path class="st0" d="M494.7,534.9c-1.5-10.4-0.6-20.9-1.9-31.4c0.2-0.1,0.4-0.1,0.5-0.2c0.2,0.6,0.5,1.2,0.6,1.8
		c0.2,4.5,0.3,9,0.5,13.5c0.2,4.6,0.6,9.3,1,13.9c0,0.8,0,1.5,0,2.3C495.1,534.8,494.9,534.9,494.7,534.9"/>
	<path class="st0" d="M498.1,532c-0.7-9.7-1.4-19.1-2-28.6c0-0.1,0.4-0.2,0.9-0.6c1.1,9.6,1.1,19.1,1.7,28.5
		C498.7,531.5,498.4,531.7,498.1,532"/>
	<path class="st0" d="M458.7,464.5c-0.3-0.2-0.5-0.4-0.7-0.5l-1.4-33.6c0.1,0,0.2-0.1,0.3-0.1c0.2,0.5,0.6,0.9,0.6,1.4
		c0.2,2.1,0.4,4.1,0.5,6.2c0.1,3.3,0.1,6.6,0.2,9.9c0.2,5.2,0.4,10.4,0.6,15.5C458.8,463.7,458.7,464,458.7,464.5"/>
	<path class="st0" d="M476,452.4c-0.1-0.3-0.3-0.6-0.3-0.9c-0.1-2.6-0.3-5.1-0.3-7.7c0.1-4.2,0.3-8.5,0.5-12.7
		c0-0.7-0.2-1.5-0.2-2.2c0-0.3,0.2-0.6,0.3-0.9c0.2,0.2,0.7,0.5,0.7,0.7c0.1,1.7,0.3,3.5,0.2,5.2c-0.1,5.4-0.2,10.8-0.3,16.3
		c0,0.7-0.1,1.5-0.1,2.2C476.3,452.4,476.1,452.4,476,452.4"/>
	<path class="st0" d="M461.1,432.3c1,8,2.1,16,3.1,24c-0.1,0.1-0.2,0.1-0.4,0.2c-0.2-0.4-0.5-0.7-0.6-1.1c-0.8-6.3-1.6-12.6-2.3-19
		c-0.1-1-0.4-2-0.5-3.1c0-0.3,0-0.7,0.1-1C460.7,432.3,460.9,432.3,461.1,432.3"/>
	<path class="st0" d="M462.2,542.8v-24.5C463.1,519.3,463.1,541.4,462.2,542.8"/>
	<path class="st0" d="M469.7,432.1c0.6,6.8,1.2,13.6,1.9,20.6c-0.4-0.7-0.9-1.3-1-2c-0.6-6-1-12-1.5-18c0-0.2,0.1-0.3,0.2-0.5
		C469.4,432.1,469.5,432.1,469.7,432.1"/>
	<path class="st0" d="M467.8,510.8c0.3-8.4,0.5-16.4,0.7-24.6C469.5,487.3,468.9,508.9,467.8,510.8"/>
	<path class="st0" d="M479.7,522.6c0.3,6.4,0.3,12.8-0.1,19.2H479v-19.2H479.7z"/>
	<path class="st0" d="M452.1,539.4V520h0.6v19.4C452.5,539.4,452.3,539.4,452.1,539.4"/>
	<path class="st0" d="M470.7,521.5v19.8c-0.1,0.1-0.1,0.1-0.2,0.1c-0.2-0.4-0.5-0.8-0.5-1.2c-0.1-2.8-0.1-5.5-0.1-8.3
		c0-3.1,0.1-6.1,0.2-9.2c0-0.5,0.2-1,0.3-1.5C470.5,521.4,470.6,521.5,470.7,521.5"/>
	<path class="st0" d="M473.3,488c0.5,7.1,0.6,14.3-0.5,21.4V488H473.3z"/>
	<path class="st0" d="M483.1,540.6c-0.1-0.6-0.3-1.3-0.3-1.9c0-4.1,0-8.1,0-12.2c0-0.5-0.1-1.1-0.1-1.6c0-0.2,0.2-0.5,0.4-0.7
		c0.2,0.2,0.6,0.4,0.6,0.7c0.1,2,0.1,3.9,0.1,5.9c0,3,0,5.9,0,8.9c0,0.3-0.1,0.6-0.2,0.9C483.4,540.6,483.3,540.6,483.1,540.6"/>
	<path class="st0" d="M476.4,473.5c-0.9-5.1-1.5-10.2-0.5-15.4c0.1,0,0.3-0.1,0.4-0.1c0.1,0.3,0.3,0.5,0.3,0.8
		c0.1,4.1,0.2,8.2,0.3,12.2c0,0.8,0,1.6,0,2.4H476.4z"/>
	<path class="st0" d="M455.5,489.4c-0.2,7.3-0.5,14.5-0.7,21.8c-0.2,0-0.4,0-0.6,0c0.3-7.2,0.7-14.5,1-21.7
		C455.2,489.4,455.3,489.4,455.5,489.4"/>
	<path class="st0" d="M456.3,524.6c0.5,5.7-0.1,11.4,0.2,17.1c-0.2,0-0.4,0.1-0.5,0.1c-0.1-0.6-0.3-1.2-0.3-1.8
		c0-4.2,0.1-8.4,0.1-12.6c0-0.9-0.1-1.9-0.2-2.8C455.9,524.6,456.1,524.6,456.3,524.6"/>
	<path class="st0" d="M474.8,542.5c-0.2-0.4-0.5-0.7-0.4-1.1c0.2-4.4,0.5-8.8,0.7-13.1c0-0.3,0.2-0.7,0.3-1c0.2,0,0.4,0.1,0.6,0.1
		c-0.2,5-0.5,10-0.7,15C475.1,542.5,475,542.5,474.8,542.5"/>
	<path class="st0" d="M433.2,399.4v15.4C432.2,412.1,432.1,400.6,433.2,399.4"/>
	<path class="st0" d="M458.6,489.4v22c-0.3,0-0.5,0-0.8,0c0.3-7.3,0.7-14.6,1-21.9C458.8,489.4,458.7,489.4,458.6,489.4"/>
	<path class="st0" d="M466.4,541.3v-14.2c0.2,0,0.3,0,0.5,0v14.2C466.7,541.3,466.6,541.3,466.4,541.3"/>
	<path class="st0" d="M459.9,526.9c0.2,4.6,0.3,9,0.5,13.4C459.3,539,459,527.7,459.9,526.9"/>
	<path class="st0" d="M428.2,396.1c-1.3,4-0.3,8.1-0.4,12.5C426.3,406.3,426.6,397.5,428.2,396.1"/>
	<path class="st0" d="M473.4,407.1c0.3,3.5,0.6,7.1,1,10.6C473.3,416.5,472.5,408.3,473.4,407.1"/>
	<path class="st0" d="M463,496.5v14.3c-0.1,0-0.2,0-0.4,0v-14.3C462.8,496.5,462.9,496.5,463,496.5"/>
	<path class="st0" d="M480.2,457.9c0.6-3,1.3-5.9,2-9.1C483,450.7,481.4,457.5,480.2,457.9"/>
	<path class="st0" d="M450.7,498.7c0.7,4.7,0.3,11-0.7,11.6C450.2,506.4,450.5,502.5,450.7,498.7"/>
	<path class="st0" d="M453.1,416.2c-0.2-0.3-0.5-0.5-0.5-0.7c-0.2-3.5-0.4-7.1-0.5-10.6c0-0.2,0-0.3,0-0.4c0.1-0.5,0.1-1,0.2-1.4
		c0.2,0.5,0.5,1,0.6,1.6c0.2,3.6,0.3,7.3,0.5,10.9C453.4,415.6,453.3,415.8,453.1,416.2"/>
	<path class="st0" d="M469.4,401.2c0.2,3.5,0.5,6.7,0.7,10.1C469.1,410.1,468.5,402.8,469.4,401.2"/>
	<path class="st0" d="M438.8,446.2c0.4,1.9,0.8,3.7,1.2,5.8C438.8,451.2,438.1,448.1,438.8,446.2"/>
	<path class="st0" d="M462.2,495v-6.7c0.1,0,0.2,0,0.2,0v6.7C462.4,495,462.3,495,462.2,495"/>
	<path class="st0" d="M492.6,430.2c1.3,1,1.4,2.7,0.4,4.1C492.9,433.1,492.8,431.8,492.6,430.2"/>
	<path class="st0" d="M442,490.2c0.3,0.9,0.5,1.6,0.7,2.4c0,0.2-0.2,0.5-0.4,0.8c-0.3-0.2-0.8-0.4-0.8-0.5
		C441.5,492,440.5,491,442,490.2"/>
	<path class="st0" d="M488,538.5c-0.1-1.1-0.2-2.2-0.3-3.3c0.3,0,0.6,0,0.9-0.1c0.1,1.1,0.1,2.2,0.2,3.3
		C488.5,538.5,488.3,538.5,488,538.5"/>
	<path class="st0" d="M491.3,533.7c1.4,1,1.5,2.6,0.6,4.1C491.7,536.4,491.5,535.2,491.3,533.7"/>
	<path class="st0" d="M471,413.4c0.1,1.3,0.2,2.5,0.3,3.8c-0.2,0-0.3,0-0.5,0.1c-0.2-1.3-0.4-2.5-0.6-3.8
		C470.5,413.4,470.7,413.4,471,413.4"/>
	<path class="st0" d="M472.1,460.1c-0.2-1.1-0.4-2.2-0.6-3.4c0.3,0,0.5-0.1,0.8-0.1c0.2,1.1,0.4,2.3,0.5,3.4
		C472.6,460,472.4,460.1,472.1,460.1"/>
	<path class="st0" d="M427.1,389.6c0.2-0.1,0.4-0.1,0.6-0.3c0.3-0.2,0.6-0.5,0.9-0.8c-0.4-0.2-0.7-0.4-1.1-0.5
		c-0.9-0.1-1.1-0.6-0.7-1.3c1.1-1.7,2.1-3.6,4.7-3c0.3,0.1,0.6-0.3,1-0.4c-0.3-0.4-0.5-1-0.8-1c-1.1,0-2.3,0-3.3,0.4
		c-2.3,1.1-3.5,4-3,6.6c-1.3,0.1-1.7-0.2-1.8-1.7c-0.2-4.5,4.5-7.9,8.1-8.2c0.8-0.1,1.9,0,2,1.3c0,0.2,0.5,0.7,0.6,0.6
		c0.3-0.1,0.7-0.4,0.8-0.7c2.1-5,7.4-7.1,12-4.8c0.7,0.3,1.2,1,1.7,1.5c0.6,0.7,1.1,0.8,1.6-0.1c2.3-4.1,6.1-6,10.4-7.2
		c0.6-0.2,1.3-0.1,1.9,0c4.1,0.7,8,2.1,11.4,4.6c0.5,0.3,0.6,1.1,1,1.5c0.3,0.4,0.6,0.9,1,1c0.3,0.1,0.8-0.3,1.1-0.6
		c1.5-1.7,3.2-3,5.5-3c2.7,0,5.4,0.3,7.8,1.7c1,0.6,2.1,0.6,3.1,0c4.3-2.7,10.1-0.7,13.3,2.5c1.9,1.9,3.7,3.9,4.1,6.7
		c0.4,2.3-0.5,3.9-2,5.4c-0.3,0.3-0.5,0.6-0.7,0.9c-1.1,1.8-2.4,3.2-4.6,3.4c-1.8,0.2-1.8,0.6-1.4,2.3c0.7,3.1,1.2,6.2,1.7,9.3
		c0.7,4.6-0.1,9.1-0.7,13.6c-1,7.6-10,9.4-13.6,6.8c-3.6-2.6-6-6.1-6.7-10.6c-0.5-3-0.8-6-1.4-8.9c-0.5-2.7-1.2-5.4-2.1-8
		c-1.1-3.4-3.4-4.7-6.8-4.3c-3.3,0.3-6.6,1-10,0.7c-5.2-0.5-10.4,0-15.5-0.5c-4.5-0.5-9-1.8-13.5-2.8c-1.8-0.4-3.5-1-5.3-1.5
		c-0.4-0.1-0.8-0.2-1.3-0.3C427.1,389.8,427.1,389.7,427.1,389.6 M484.6,374.6c-0.2,0.2-0.6,0.5-0.9,0.9c0.4,0.2,0.8,0.7,1.2,0.7
		c2,0.1,3.8,0.5,5.3,2c1.2,1.2,2.4,2.6,3.6,3.8c0.3,0.3,0.8,0.3,1.2,0.5c0-0.4,0.3-0.9,0.1-1.2C492.8,377.3,489.5,375.1,484.6,374.6
		 M493.8,425.2c2.5-0.1,4.4-1.1,6-2.6c0.2-0.2,0.1-0.9,0.2-1.3c-0.4,0-0.9-0.1-1.2,0.1c-2.1,1.6-4.2,2.8-6.9,1.6
		c-0.2-0.1-0.7,0.2-1,0.4c0.2,0.4,0.3,0.9,0.6,1C492.3,424.8,493.2,425,493.8,425.2 M462.2,373.6c-1.5-1.2-5.2-1-7.3,0.3
		c-1.7,1-2.6,2.6-3.3,4.4c1.6-1.3,2.8-3.2,4.5-4C457.9,373.5,460.1,373.8,462.2,373.6 M506.9,382.4c-0.1,0.5-0.1,1-0.2,1.4
		c-0.2,1-0.3,2-0.6,2.9c-0.2,0.5-0.9,0.9-1.3,1.4c-0.2,0.3-0.1,0.7-0.1,1.1c0.4-0.1,1,0,1.2-0.3c0.7-0.8,1.4-1.8,2-2.7
		C508.5,385.2,508.1,383.2,506.9,382.4 M482.8,395.3c1.8,0,3.2-1.1,3.6-2.5c0.9-3,1-4.1,0.2-4.7c-0.3,0.8-0.8,1.5-0.7,2.2
		c0.2,1.8-0.5,3.1-1.9,4C483.6,394.6,483.3,394.9,482.8,395.3 M448.4,380.9c-0.9-2.1-2.5-3.4-4.7-3.9c-0.5-0.1-1,0.1-1.6,0.2
		c0,0.2,0,0.4,0,0.6C444.9,377.6,446.6,379.3,448.4,380.9 M486.2,417.1c-0.1-1.5-0.1-2.8-0.3-4.1c0-0.2-0.4-0.4-0.6-0.4
		c-0.2,0-0.5,0.2-0.7,0.5C484.1,413.9,485,416.4,486.2,417.1 M509.5,383.9c-0.4,1.5-0.9,3.1-1.3,4.7
		C510,387.6,510.7,384.8,509.5,383.9 M432.8,387.1c0-0.2,0-0.4-0.1-0.6c-0.7,0.1-1.5,0.1-2.1,0.5c-0.4,0.2-0.6,1-0.9,1.5
		c0.1,0.1,0.3,0.2,0.4,0.3C431.1,388.2,431.9,387.7,432.8,387.1 M461.3,377c-0.9-1.2-2.2-1.3-3.4-1.3c-0.2,0-0.4,0.4-0.5,0.7
		c0.2,0.1,0.4,0.4,0.7,0.4C459,376.9,460,376.9,461.3,377"/>
	<path class="st0" d="M509.8,392.2c1.5,1.5,1.2,3.2,1.2,4.7c-0.2,5.1-0.6,10.2-1,15.4c-0.2,1.9-0.6,3.7-1,5.6
		c-0.4,1.4-1.8,1.3-2.9,1.3c-1.2,0-0.8-1.1-0.8-1.7c0.1-2.8,0.5-5.6,0.3-8.4c-0.2-3.7-0.8-7.4-1.4-11.1c-0.2-1.4-0.3-2.2,1.4-2.5
		c0.8-0.2,1.6-0.9,2.3-1.5C508.5,393.4,509.1,392.8,509.8,392.2 M507.2,396.4c0.6,5.5,1.1,10.9,0,16.3c0,0.2,0.3,0.5,0.4,0.7
		C509.2,410.7,509.1,397.5,507.2,396.4"/>
	<path class="st0" d="M431.4,442.2h5c-0.6,1.7-1.8,1.3-2.8,1.3c-1,0-2-0.1-2.9-0.2c0,0.2,0,0.3,0,0.5h4.8c0,0.2,0,0.3,0.1,0.5
		c-1.7,1.6-4,0.1-5.9,0.6c0,0.1,0,0.3,0,0.4c1.6,0.1,3.1,0.2,4.8,0.3c-0.3,1.4-1.4,1.7-2.5,1.9c-1,0.2-2,0.3-3.1,0.4
		c0,0.2,0.1,0.4,0.1,0.6c1.3-0.3,2.7-0.5,4-0.8c0.1,0.1,0.2,0.2,0.3,0.2c-1.3,1.7-2.5,3.3-3.8,5c-1.4,1.7-2.8,3.3-4.2,5
		c-0.9,1.2-1.8,2-3.5,1.7c-1.8-0.2-3.7-0.1-5-0.1c-1.5-2.3-2.8-4.2-4.3-6.4c1.6-2,3.4-4.3,5.4-6.5c2.4-2.6,4.9-5,7.4-7.5
		c0.3-0.3,0.9-0.6,1.4-0.6c2.6,0.1,5.1,0.2,7.7,0.4c0.5,0,1.1,0.2,1.4,0.5c0.4,0.4,0.7,1,1,1.6c-0.5,0.3-1,0.8-1.5,0.9
		c-0.8,0.1-1.6-0.1-2.4-0.1c-0.5,0-0.9-0.1-1.4-0.1C431.4,441.8,431.4,442,431.4,442.2"/>
	<path class="st0" d="M441.4,420c0.7,2-0.1,3.9-2.1,5.1c0.2-1,0.4-1.8,0.6-2.6c-0.1,0-0.2-0.1-0.3-0.1c-0.2,0.7-0.5,1.4-0.7,2.1
		c-0.2,0-0.3,0.1-0.5,0.1c-0.3-0.7-0.8-1.4-0.8-2.1c0-0.7,0.3-1.5,0.5-2.3c-0.2,0-0.3-0.1-0.5-0.1c-0.2,0.9-0.3,1.8-0.5,2.8
		c-1.2-0.8-1.7-1.8-1.2-3.1c0.4-1.2,1.9-1.9,3.5-1.5c0.1-0.8,0.3-1.5,0.3-2.2c0.1-1.7,0.1-3.3,1.4-4.7c1-1.1,2.3-1.4,3.7-1.2
		c1.4,0.3,2.3,1.3,2.6,2.7c0.5,1.9-0.5,5-2.8,5.7C443.5,418.9,442.5,419.5,441.4,420 M441,416.6c-0.8-1.6,0.6-3,0.2-4.6
		c-1.3,1.9-1,4.7,0.3,5.8c0.2-1.1,0.3-2.2,0.5-3.3c-0.1,0-0.2-0.1-0.4-0.1C441.4,415.1,441.2,415.8,441,416.6"/>
	<path class="st0" d="M423.7,437.2c2.2-2.3,4.4-4.7,6.7-7c0.2-0.2,0.5-0.2,0.7-0.3c0.5-0.4,1.1-0.7,1.4-1.2c0.4-0.6,0.1-1.8,1.5-1.2
		c0.2,0.1,0.7-0.4,1.3-0.4c-0.7,0.6-1.4,1.2-2,1.9c-1.9,2.1-3.8,4.1-5.6,6.3C426.7,436.6,425.5,437.1,423.7,437.2"/>
	<path class="st0" d="M433.7,421.5c2.1,1.9,4.3,3.8,6.4,5.8c-0.1,0.1-0.2,0.2-0.3,0.3c-3.1-0.8-4.9-3.1-6.6-5.6
		C433.5,421.8,433.6,421.7,433.7,421.5"/>
	<path class="st0" d="M488,484.1c0.4,4.2,0.8,8.4,1.2,12.6c-0.2,0-0.4,0-0.6,0.1c-0.4-4.2-0.7-8.4-1.1-12.6
		C487.7,484.1,487.9,484.1,488,484.1"/>
	<path class="st0" d="M484.6,374.6c4.9,0.5,8.2,2.7,10.4,6.6c0.2,0.3-0.1,0.8-0.1,1.2c-0.4-0.2-0.9-0.2-1.2-0.5
		c-1.2-1.2-2.4-2.6-3.6-3.8c-1.4-1.4-3.3-1.9-5.3-2c-0.4,0-0.8-0.4-1.2-0.7C484.1,375.2,484.4,374.8,484.6,374.6"/>
	<path class="st0" d="M493.8,425.2c-0.6-0.2-1.5-0.4-2.4-0.7c-0.3-0.1-0.4-0.7-0.6-1c0.3-0.1,0.8-0.5,1-0.4c2.7,1.1,4.8,0,6.9-1.6
		c0.3-0.2,0.8-0.1,1.2-0.1c0,0.4,0.1,1.1-0.2,1.3C498.2,424.1,496.4,425,493.8,425.2"/>
	<path class="st0" d="M462.2,373.6c-2.1,0.2-4.3-0.1-6.1,0.7c-1.7,0.8-2.9,2.7-4.5,4c0.7-1.7,1.6-3.3,3.3-4.4
		C457,372.6,460.7,372.4,462.2,373.6"/>
	<path class="st0" d="M506.9,382.4c1.2,0.8,1.6,2.7,0.9,3.8c-0.6,0.9-1.2,1.9-2,2.7c-0.2,0.3-0.8,0.2-1.2,0.3c0-0.4,0-0.9,0.1-1.1
		c0.4-0.5,1.1-0.8,1.3-1.4c0.4-0.9,0.4-1.9,0.6-2.9C506.8,383.4,506.8,383,506.9,382.4"/>
	<path class="st0" d="M482.8,395.3c0.6-0.5,0.8-0.7,1.1-0.9c1.5-0.9,2.1-2.2,1.9-4c-0.1-0.7,0.4-1.5,0.7-2.3
		c0.9,0.6,0.8,1.7-0.2,4.7C485.9,394.2,484.5,395.4,482.8,395.3"/>
	<path class="st0" d="M448.4,380.9c-1.8-1.6-3.5-3.3-6.3-3.1c0-0.2,0-0.4,0-0.6c0.5-0.1,1.1-0.3,1.6-0.2
		C445.9,377.4,447.5,378.8,448.4,380.9"/>
	<path class="st0" d="M486.2,417.1c-1.1-0.7-2-3.2-1.6-4.1c0.1-0.2,0.4-0.5,0.7-0.5c0.2,0,0.6,0.3,0.6,0.4
		C486,414.3,486.1,415.7,486.2,417.1"/>
	<path class="st0" d="M509.5,383.9c1.2,0.9,0.5,3.8-1.3,4.7C508.7,387,509.1,385.4,509.5,383.9"/>
	<path class="st0" d="M432.8,387.1c-0.9,0.6-1.8,1.1-2.6,1.7c-0.1-0.1-0.3-0.2-0.4-0.3c0.3-0.5,0.4-1.2,0.9-1.5
		c0.6-0.3,1.4-0.3,2.1-0.5C432.8,386.7,432.8,386.9,432.8,387.1"/>
	<path class="st0" d="M461.3,377c-1.3-0.1-2.3-0.1-3.3-0.2c-0.2,0-0.4-0.3-0.7-0.4c0.2-0.2,0.4-0.7,0.5-0.7
		C459.1,375.7,460.4,375.7,461.3,377"/>
	<path class="st0" d="M507.2,396.4c1.9,1.1,2,14.3,0.4,17.1c-0.2-0.3-0.5-0.5-0.4-0.7C508.3,407.4,507.8,402,507.2,396.4"/>
	<path class="st0" d="M441,416.6c0.3-0.8,0.5-1.5,0.7-2.2c0.1,0,0.2,0.1,0.4,0.1c-0.2,1.1-0.4,2.2-0.5,3.3c-1.3-1.1-1.6-3.9-0.3-5.8
		C441.6,413.6,440.1,415,441,416.6"/>
	<path class="st0" d="M436.5,414.8c0.8-2.9,1.4-3.5,3.9-4c0.5-2.1,0.8-4,1.5-5.7c0.8-1.9,3.7-3,5.7-2.4c2.3,0.7,3.8,2.9,3.6,5.2
		c-0.3,2.6-1.4,4.7-4,5.7c-1.2,0.4-1.8,1.1-2.1,2.5c-0.3,1.5-1.5,2.9-2.5,4.1c0,0.1,0,0.2,0,0.3c0.2,0.8,0.5,1.5,0.7,2.3
		c-0.8,0.1-1.8,0.5-2.4,0.1c-1.8-1.1-3.1-0.7-4.4,0.7c-2.3,2.6-4.5,5.1-7,7.9c2,0.1,3.6,0.2,5.2,0.4c1.1,0.1,2.1,0.4,3.1,0.8
		c2.2,0.9,2.9,2.2,2,4.4c-0.8,2-1.9,4-3.2,5.8c-2.6,3.6-5.3,7.1-8.2,10.5c-2.1,2.5-4.3,5-6.6,7.3c-4.5,4.4-9.2,8.5-13.7,12.9
		c-3,3-5.8,6.3-8.6,9.5c-5.4,6-6.6,13.2-6.2,20.9c0.3,6.1,0.5,12.2,0.8,18.2c0.1,2.6,0.5,5.1,0.9,7.7c0.1,0.7,0.7,1.6,1.3,2
		c6.7,4.6,14.1,7.9,21.9,10.1c1.4,0.4,3,0.3,4.5,0.3c1,0,1.8,1.2,1.2,2.1c-0.6,0.9-1.4,1.8-2.3,2.2c-4.4,2.1-8.9,4-13.4,5.9
		c-4.9,2-10,2.6-15.3,2.7c-5.3,0.1-10.6-0.1-15.8-1.1c-5.2-1-10.1-2.7-14.8-5.3c-0.7-0.4-1.7-1.4-1.6-1.8c0.3-0.8,1.1-1.8,1.9-2.1
		c3.8-1.5,7.7-2.6,11.4-4.3c3.4-1.6,6.7-3.6,9.9-5.6c2.4-1.5,2.4-4.3,2.5-6.8c0.4-7.9-0.6-15.7-1.1-23.6c-0.1-2.2-0.3-4.4-0.4-6.6
		c-0.2-4.2-2.1-7.8-4.5-11.2c-2.8-3.9-5.6-7.8-8.7-11.5c-2.7-3.2-5.9-5.9-8.8-8.9c-6.3-6.2-13.1-11.7-20.1-17c-3-2.3-5.1-5-6.1-8.6
		c-0.3-1,0.5-1.9,1.6-2.1c2.4-0.6,4.8-1.4,7.2-1.5c6-0.2,12,0.2,18,0c8-0.3,15.9-0.9,23.9-1.5c5.7-0.4,11.5-1.1,17.2-1.6
		c5.3-0.4,10.6-0.8,15.9-1.1c1.9-0.1,3.2-1.1,4.4-2.3c3.2-3.3,6.3-6.6,9.6-9.9c0.8-0.8,1.1-1.5,0.1-2.4c-0.3-0.2-0.5-0.6-0.5-0.9
		c-0.1-0.8-0.4-1.7-0.1-2.3c0.2-0.3,1.3-0.2,2.1-0.2C436.2,414.7,436.4,414.8,436.5,414.8 M412.7,460.8c0-0.1,0.1-0.2,0.1-0.3
		c0.4-0.1,0.8-0.2,1.2-0.2c1.7,0,1.9-0.2,2-2.3h-18.3c0.1,3.9,4.1,5.6,8.5,6.7c3,0.8,7.4-1.3,8.5-3.5
		C414,461,413.3,460.9,412.7,460.8 M357.1,459.3L357.1,459.3c0.6,0.5,1.2,1.6,1.9,1.6c2.3,0.2,4.7,0.1,7,0.1c0,0.1,0,0.2,0,0.4h-6.3
		c0,0.3,0,0.3,0,0.3c5.9,5.7,12.1,11.1,16.8,17.8c0.3,0.5,1.2,0.8,1.9,0.8c1.2,0.1,2.4,0,3.6,0c0,0.1,0,0.1,0,0.2
		c-1.2,0.2-2.5,0.3-3.8,0.5c1.6,2.1,3.9,0.5,5.6,1.4c-1.2,0.1-2.5,0.2-3.8,0.3c3.5,4.2,3.7,6.3,13.7,5.4c-2.2,0.2-4.5,0.5-6.7,0.7
		c0,0.1,0,0.3,0,0.4c1.8,0.1,3.5,0.2,5.3,0.4c-0.9,1.6-2.4,1.3-3.8,1.3c-1.5,0-2.9-0.3-4.6-0.5c2.3,3.9,2.1,8.1,2.5,12.1
		c0.4,4.6,0.6,9.2,0.9,13.9c0.3,5,0.6,10-0.2,14.9c-0.3,1.7-0.8,3.3-2.4,4.3c-6.3,4.2-13.2,7.1-20.5,9.2c-1,0.3-2,0.6-2.4,1.7
		c0.1,0.1,0.2,0.3,0.3,0.4c0.7-0.3,1.4-0.7,2.2-1.1c0,0.6,0.1,1.2,0.1,1.9c0.1,0,0.2,0,0.3,0c0.1-0.4,0.2-0.7,0.3-1.2
		c1.2,0.7-0.1,2.9,2,2.8c-0.1-0.6-0.2-1.1-0.4-1.7c0.1,0,0.2-0.1,0.3-0.1c0.5,1,1.1,1.9,1.6,2.9c0.2-0.1,0.3-0.2,0.4-0.2
		c-0.3-1-0.5-1.9-0.8-2.9c0.2-0.1,0.3-0.1,0.5-0.1c0.2,0.7,0.4,1.4,0.7,2.1c0.3,0.6,0.8,1.1,1.2,1.7c0.1-0.1,0.2-0.2,0.3-0.3
		c-0.3-0.8-0.5-1.7-0.8-2.5c0.2,0,0.4-0.1,0.5-0.1c0.2,0.7,0.4,1.3,0.7,1.9c0.3,0.6,0.8,1.1,1.2,1.6c0.1-0.1,0.2-0.2,0.3-0.3
		c-0.3-0.7-0.6-1.4-0.9-2.2c0.1-0.1,0.3-0.1,0.4-0.2c0.3,0.6,0.6,1.1,1,1.6c0.4,0.6,0.9,1.3,1.4,1.5c1.9,0.6,3.9,0.9,6.2,1.4
		c-0.8-1.2-1.3-2.1-1.9-2.9c0.2-0.1,0.3-0.2,0.5-0.3c0.4,0.7,0.8,1.5,1.3,2.2c0.5,0.6,1.2,0.9,1.9,1.4c0.1-0.1,0.2-0.2,0.3-0.4
		c-0.6-0.9-1.2-1.8-1.8-2.7c0.2-0.1,0.4-0.3,0.5-0.4c0.5,0.8,0.9,1.5,1.4,2.3c0.6,1,1.5,1.2,2.7,1c-0.7-1-1.3-1.9-1.8-2.8
		c0.2-0.1,0.3-0.2,0.4-0.3c0.2,0.3,0.4,0.5,0.6,0.8c0.7,1.2,1.2,2.6,2.8,2.6c1.3,0.1,2.6-0.2,3.9-0.3c-0.8-0.9-1.5-1.7-2.2-2.5
		c0.1-0.1,0.3-0.3,0.4-0.4c1.3,1.3,2.1,3.5,4.5,3c0.1-0.2,0.3-0.3,0.4-0.5c-0.9-0.7-1.9-1.5-2.8-2.2c0.1-0.1,0.2-0.2,0.3-0.4
		c1.7,0.9,2.4,3.5,4.8,3c0.2-0.2,0.3-0.4,0.5-0.6c-0.9-0.7-1.8-1.4-2.7-2.1c0.1-0.1,0.2-0.2,0.3-0.3c0.7,0.7,1.5,1.4,2.2,2.1
		c0.9,0.8,1.8,1,3,0.4c-0.8-1.1-2.3-1.6-2.4-3.1c0.3,0,0.4,0.2,0.5,0.4c0.9,1.2,1.8,2.7,3.4,2.6c1.4-0.1,2.7-0.8,4.3-1.3
		c-0.7-0.5-1.2-0.8-1.6-1.1c-0.4-0.3-0.7-0.6-1-0.9c0.1-0.1,0.2-0.2,0.3-0.4c1.5,0.5,2.4,3.3,4.7,1.4c-0.8-0.7-1.5-1.3-2.3-2
		c0.1-0.1,0.2-0.2,0.3-0.3c0.5,0.4,0.9,0.7,1.4,1.1c1.4,1.2,2,1.1,3.6,0.1c1-0.7,2.3-1,3.4-1.5c1.6-0.7,3.2-1.3,4.8-2.2
		c1.1-0.6,1.9-1.5,2.9-2.3c-0.1-0.2-0.1-0.4-0.2-0.5c-0.6,0-1.2,0-1.8,0.1c-0.4,0-0.8,0.3-1.2,0.2c-1.6-0.5-3.3-1-4.9-1.7
		c-4.7-2-9.4-4-14-6.1c-1.3-0.6-2.5-2-3.8-1.9c-1.4,0-1.7-0.7-2.2-1.4c-1.2-1.4-1.1-3.1-1.2-4.8c-0.3-5-0.8-10-1.1-15.1
		c-0.2-3.6-0.3-7.2-0.4-10.7c-0.1-0.1-0.3-0.1-0.4-0.2c-1.3,1.4-2.7,2.8-4,4.3c1.1-1.7,2.4-3.3,3.7-4.8c0.5-0.6,0.7-1.3,1-2
		c-0.2-0.1-0.3-0.2-0.5-0.3c-1.1,1.1-2.2,2.2-3.3,3.3c-0.1-0.1-0.2-0.2-0.3-0.2c1-1.2,1.9-2.6,3.1-3.4c1-0.7,0.7-1.1,0.3-2.2
		c-1.1,1.2-2,2.3-2.8,3.3c0.6-2,2.1-3.4,3-3.7c1.1-3.1,1.7-6.4,3.2-9.1c1.8-3.1,4.2-5.9,6.7-8.5c5.8-5.9,11.9-11.6,17.8-17.3
		c1.2-1.2,2.4-2.5,3.8-3.9c-2.1,0.3-3.8,0.5-5.5,0.8c-0.3,0.1-0.7,0.5-0.9,0.9c-0.4,0.9-0.6,1.9-1.2,2.7c-2.9,3.6-6.8,4.7-11.2,3.7
		c-1-0.2-1.9-0.5-2.9-0.8c0.1,1.1,0.1,2.1,0.1,3.1c0,1,0,2-0.1,2.9c-0.2,2.9-3.1,5.4-6,5.4c-2,0-3.8-0.6-5.2-1.9
		c-2.2,1.5-4.3,3.1-6.5,4.4c-0.7,0.5-1.8,0.4-2.7,0.6c0.2-0.9,0.1-2.1,0.6-2.8c1.7-2.4,3.7-4.7,5.6-7.1c-2-3.7-0.6-7.7,0.2-11.7
		c-0.6-0.1-1.1-0.1-1.5-0.1c-4.9,0.1-9.8,0.2-14.6,0.2c-4.4,0-8.9-0.1-13.3-0.3c-1,0-2.1-0.5-3.1-0.7c0-0.2,0-0.4,0-0.6
		c0.6-0.3,1.1-0.7,1.7-0.8c3.5-0.4,6.9-1,10.4-1.1c6.5-0.1,13,0.1,19.4,0.1c1,0,2.3,0.2,3-0.3c1.7-1.4,3.5-1.7,5.5-1.5
		c0.4,0,1.2-0.4,1.3-0.7c0.5-1.7,1.9-2.4,3.1-3.3c2.6-1.9,5.5-1.9,8.4-1c1.1,0.3,1.5,0.2,2.2-0.5c2.2-2.6,4.5-5.3,6.7-7.9
		c1.3-1.5,2.7-3,4.1-4.5c-2.5-0.2-4.7-0.1-6.9,0.1c-4.3,0.4-8.5,0.9-12.8,1.3c-5.5,0.6-11.1,1-16.6,1.7c-9.7,1.2-19.5,1.1-29.3,1.4
		c-4.8,0.2-9.7,0.2-14.5,0.6c-3.3,0.3-3.4,0.8-2.2,3.8c1.2,0.1,2.3,0.1,3.5,0.2c0,0.1,0,0.2,0,0.3c-1,0-1.9,0.1-2.9,0.1
		c0,0.1,0,0.3,0,0.5c1.8,0.7,3.8,0.3,5.7,0.6c-1.5,0.1-3,0.3-4.4,0.4c1.6,1.5,3.5,0.8,5.7,1.1c-1.6,0.2-2.8,0.4-4.4,0.6
		c3,2.3,5.7,4.4,8.3,6.5c0.1,0.1,0.4,0.1,0.6,0.1c1.5-0.1,3.1-0.3,4.6-0.4c0,0.2,0,0.3,0,0.5c-1.4,0.1-2.8,0.3-4.4,0.4
		C353.3,456,355.2,457.7,357.1,459.3 M433.3,437.1c0-0.2,0-0.4,0-0.6c0.5,0,1,0.1,1.5,0.1c0.8,0.1,1.7,0.3,2.5,0.1
		c0.6-0.1,1-0.6,1.6-0.9c-0.3-0.5-0.6-1.2-1.1-1.6c-0.3-0.3-0.9-0.4-1.4-0.5c-2.7-0.2-5.3-0.3-8-0.4c-0.5,0-1.1,0.3-1.4,0.7
		c-2.6,2.6-5.2,5.1-7.7,7.8c-2.1,2.3-3.9,4.7-5.7,6.8c1.5,2.3,2.9,4.3,4.5,6.6c1.4,0,3.3-0.2,5.2,0.1c1.8,0.2,2.7-0.6,3.7-1.8
		c1.4-1.8,2.9-3.5,4.3-5.2c1.4-1.7,2.6-3.4,3.9-5.2c-0.1-0.1-0.2-0.2-0.3-0.3c-1.4,0.3-2.8,0.6-4.2,0.8c0-0.2-0.1-0.4-0.1-0.6
		c1.1-0.1,2.1-0.2,3.2-0.4c1.2-0.2,2.3-0.5,2.6-2c-1.7-0.1-3.3-0.2-5-0.3c0-0.2,0-0.3,0-0.5c2-0.5,4.4,1,6.1-0.7
		c0-0.2,0-0.3-0.1-0.5h-5c0-0.2,0-0.4,0-0.5c1,0.1,2,0.3,3.1,0.2c1-0.1,2.3,0.4,2.9-1.4H433.3z M393.5,474c2.9,1.3,3.6,1.2,4.8-0.2
		c-0.8-0.3-1.6-0.6-2.4-0.8c0-0.1,0.1-0.3,0.1-0.4c0.6,0.2,1.3,0.3,1.9,0.6c0.8,0.4,1.6,0.7,1.8-0.6c0.1-0.3,0.5-0.5,0.7-0.8
		c0.8-1.1,0.8-3.4-0.2-3.8c-1.2-0.5-2.5-1.1-3.8-0.1c-0.2,0.2-0.7-0.1-1.5-0.2c2.2-1.4,4-0.8,6.1,0c-0.4-1.6-0.3-3.6-1.1-4.1
		c-2.2-1.2-2.8-3.2-3.8-5.1c-0.2-0.4-0.7-0.9-1.1-0.9c-1.2-0.1-2.4,0-3.5-0.1c-1.1-0.1-1.8,0.4-2.1,1.4c-0.5,1.8-1.3,3.6-1.5,5.5
		c-0.4,3.7,1.4,6.6,4.1,9.2c0.8-3,3.8-4.4,5.4-4.4c0.6,0,1.3,0.4,1.9,0.7c-0.1,0.2-0.1,0.3-0.2,0.5c-0.8,0.2-1.6,0.4-2.8,0.7
		c0.9,0.5,1.4,0.7,2,1c-1,0-2.1-0.5-2.9-0.2C394.9,472,394.3,473.1,393.5,474 M443.7,413.9c1.1-0.5,2.2-1.1,3.3-1.5
		c2.4-0.7,3.5-4,2.9-6c-0.4-1.5-1.2-2.5-2.7-2.8c-1.4-0.3-2.7,0.1-3.8,1.2c-1.3,1.4-1.4,3.1-1.5,4.9c0,0.8-0.2,1.5-0.3,2.3
		c-1.7-0.3-3.2,0.4-3.6,1.6c-0.5,1.4,0.1,2.4,1.3,3.2c0.2-1,0.4-2,0.6-2.9c0.2,0,0.4,0.1,0.5,0.1c-0.2,0.8-0.6,1.6-0.5,2.4
		c0,0.8,0.5,1.5,0.8,2.2c0.2,0,0.3-0.1,0.5-0.1c0.2-0.7,0.5-1.4,0.7-2.2c0.1,0,0.2,0.1,0.3,0.1c-0.2,0.8-0.4,1.7-0.6,2.7
		C443.6,418,444.5,416,443.7,413.9 M415.8,455.2c-0.1-1.6-2-4.4-3-4.7c-0.2-0.1-0.6-0.1-0.7,0.1c-0.6,0.7-1.6,1.4-1.6,2.1
		c-0.1,1.4-0.9,1.4-1.7,1.3c-1.2-0.3-2.4-0.7-3.3-1.4c-0.4-0.3-0.3-1.4-0.4-2.1c0.6,0.1,1.2,0.2,2,0.3c0.1-0.1,0.4-0.4,0.7-0.8
		c0.3-0.3,0.5-0.7,0.8-1.1c-4.7-2.3-11.1,0.4-11.4,6.4h9.2H415.8z M425.3,431.9c1.8-0.1,3.1-0.7,4.2-1.9c1.8-2.3,3.8-4.4,5.8-6.6
		c0.6-0.7,1.4-1.3,2.1-2c-0.6,0-1.1,0.5-1.3,0.4c-1.5-0.7-1.2,0.6-1.5,1.2c-0.3,0.5-0.9,0.8-1.5,1.2c-0.2,0.2-0.6,0.1-0.8,0.3
		C429.9,427,427.6,429.4,425.3,431.9 M407.6,452.1c1.9-1.9,3.9-3.6,5.7-5.6c2.5-2.9,4.7-5.9,7.2-8.8c1.1-1.3,2.5-2.4,3.8-3.6
		C422.8,434,411,447,407.6,452.1 M390.1,472.9c-0.7-0.8-1.1-1.4-1.7-2c-2.1,2-4.1,4-5.4,6.5c0.1,0.2,0.3,0.3,0.4,0.5
		C385.6,476.2,387.8,474.6,390.1,472.9 M435.7,415.5c-0.1,0.2-0.3,0.3-0.4,0.5c1.7,2.6,3.6,5,6.8,5.9c0.1-0.1,0.2-0.2,0.3-0.3
		C440.2,419.5,437.9,417.5,435.7,415.5 M391.7,454.4c1.4-0.1,2.7-0.3,4.3-0.4C394.2,453.1,392.7,453.3,391.7,454.4"/>
	<path class="st0" d="M173.5,163c0.9,2.9,0.2,5.4-1.4,7.5c-3.4,4.5-9,5.2-13.6,1.8c-4.5-3.4-5.4-9-2-13.5c1.5-2,3.5-3.3,6.2-3.4
		l0.1,1.8c-2.1-0.1-3.9,1-5,2.5c-2.9,3.9-1.9,8.4,1.8,11.2c3.7,2.8,8.4,2.5,11.3-1.4c1.1-1.5,1.8-3.9,1-6.1L173.5,163z"/>
	<path class="st0" d="M173.5,163c0.9,2.9,0.2,5.4-1.4,7.5c-3.4,4.5-9,5.2-13.6,1.8c-4.5-3.4-5.4-9-2-13.5c1.5-2,3.5-3.3,6.2-3.4
		l0.1,1.8c-2.1-0.1-3.9,1-5,2.5c-2.9,3.9-1.9,8.4,1.8,11.2c3.7,2.8,8.4,2.5,11.3-1.4c1.1-1.5,1.8-3.9,1-6.1L173.5,163z"/>
	<polygon class="st0" points="167,146.4 174.4,137.8 175.6,138.8 169.3,146.1 174.3,150.4 180.2,143.6 181.4,144.6 175.5,151.4 
		181,156.2 187.5,148.5 188.7,149.6 181.1,158.5 	"/>
	<polygon class="st0" points="167,146.4 174.4,137.8 175.6,138.8 169.3,146.1 174.3,150.4 180.2,143.6 181.4,144.6 175.5,151.4 
		181,156.2 187.5,148.5 188.7,149.6 181.1,158.5 	"/>
	<path class="st0" d="M181.4,130.2l3.4-3.5c1-1.1,4.6-4.7,8.1-1.3c2.5,2.5,1.3,5.1,0.1,6.7l10.2,2.4l-1.4,1.4l-10-2.4l-2.3,2.3
		l6.3,6.2l-1.2,1.2L181.4,130.2z M188.4,134.6l2.6-2.6c2.6-2.6,1.6-4.5,0.7-5.4c-0.9-0.9-2.9-1.8-5.4,0.8l-2.6,2.6L188.4,134.6z"/>
	<path class="st0" d="M181.4,130.2l3.4-3.5c1-1.1,4.6-4.7,8.1-1.3c2.5,2.5,1.3,5.1,0.1,6.7l10.2,2.4l-1.4,1.4l-10-2.4l-2.3,2.3
		l6.3,6.2l-1.2,1.2L181.4,130.2z M188.4,134.6l2.6-2.6c2.6-2.6,1.6-4.5,0.7-5.4c-0.9-0.9-2.9-1.8-5.4,0.8l-2.6,2.6L188.4,134.6z"/>
	<polygon class="st0" points="194.9,116.5 196.3,115.3 211.7,123.4 205.2,107.2 206.6,106 213.8,124.5 212.5,125.7 	"/>
	<polygon class="st0" points="194.9,116.5 196.3,115.3 211.7,123.4 205.2,107.2 206.6,106 213.8,124.5 212.5,125.7 	"/>
	<polygon class="st0" points="213.2,100.5 222.1,93.4 223.1,94.7 215.5,100.7 219.6,105.8 226.7,100.2 227.7,101.4 220.6,107.1 
		225.1,112.7 233,106.5 234,107.7 224.8,115 	"/>
	<polygon class="st0" points="213.2,100.5 222.1,93.4 223.1,94.7 215.5,100.7 219.6,105.8 226.7,100.2 227.7,101.4 220.6,107.1 
		225.1,112.7 233,106.5 234,107.7 224.8,115 	"/>
	<polygon class="st0" points="238.6,102.5 238.6,83.5 229.8,89.6 228.9,88.3 239.5,80.9 240.3,82 240.3,101.1 249.5,94.6 
		250.4,95.9 239.4,103.6 	"/>
	<polygon class="st0" points="238.6,102.5 238.6,83.5 229.8,89.6 228.9,88.3 239.5,80.9 240.3,82 240.3,101.1 249.5,94.6 
		250.4,95.9 239.4,103.6 	"/>
	<path class="st0" d="M252.4,72.7l1.5-0.9l16.3,11.8l-1.7,1l-4.3-3.2l-8.4,5.1l0.8,5.3l-1.5,0.9L252.4,72.7z M254.1,73.9l1.6,10.9
		l7.3-4.4L254.1,73.9z"/>
	<path class="st0" d="M252.4,72.7l1.5-0.9l16.3,11.8l-1.7,1l-4.3-3.2l-8.4,5.1l0.8,5.3l-1.5,0.9L252.4,72.7z M254.1,73.9l1.6,10.9
		l7.3-4.4L254.1,73.9z"/>
	<polygon class="st0" points="276.3,77.6 277.9,76.7 279,83 277.6,83.7 	"/>
	<polygon class="st0" points="276.3,77.6 277.9,76.7 279,83 277.6,83.7 	"/>
	<path class="st0" d="M311.2,60.6c-0.7,2.9-2.5,4.8-5,5.8c-5.2,2.2-10.4,0-12.7-5.2c-2.2-5.2-0.2-10.5,5-12.7c2.3-1,4.7-1.1,7,0.2
		l-0.8,1.6c-1.7-1.1-3.9-1.1-5.6-0.4c-4.5,1.9-5.8,6.4-4,10.6c1.8,4.3,6,6.4,10.5,4.4c1.7-0.7,3.5-2.5,3.9-4.8L311.2,60.6z"/>
	<path class="st0" d="M311.2,60.6c-0.7,2.9-2.5,4.8-5,5.8c-5.2,2.2-10.4,0-12.7-5.2c-2.2-5.2-0.2-10.5,5-12.7c2.3-1,4.7-1.1,7,0.2
		l-0.8,1.6c-1.7-1.1-3.9-1.1-5.6-0.4c-4.5,1.9-5.8,6.4-4,10.6c1.8,4.3,6,6.4,10.5,4.4c1.7-0.7,3.5-2.5,3.9-4.8L311.2,60.6z"/>
	<path class="st0" d="M321.7,39.7c5.4-1.8,10.4,0.8,12.2,6.2c1.8,5.4-0.6,10.5-6,12.3c-5.4,1.8-10.4-0.8-12.2-6.2
		C313.9,46.7,316.4,41.5,321.7,39.7 M327.5,56.7c4.6-1.5,6.3-5.9,4.8-10.3c-1.5-4.4-5.5-6.8-10.1-5.2c-4.6,1.6-6.3,5.9-4.8,10.3
		C318.9,55.9,322.9,58.3,327.5,56.7"/>
	<path class="st0" d="M321.7,39.7c5.4-1.8,10.4,0.8,12.2,6.2c1.8,5.4-0.6,10.5-6,12.3c-5.4,1.8-10.4-0.8-12.2-6.2
		C313.9,46.7,316.4,41.5,321.7,39.7 M327.5,56.7c4.6-1.5,6.3-5.9,4.8-10.3c-1.5-4.4-5.5-6.8-10.1-5.2c-4.6,1.6-6.3,5.9-4.8,10.3
		C318.9,55.9,322.9,58.3,327.5,56.7"/>
	<path class="st0" d="M359.5,45.7c-1.1,2.8-3.2,4.3-5.9,5c-5.5,1.4-10.3-1.6-11.7-7.1c-1.4-5.5,1.4-10.4,6.9-11.8
		c2.4-0.6,4.8-0.4,6.9,1.2l-1.1,1.5c-1.5-1.4-3.6-1.7-5.4-1.2c-4.7,1.2-6.7,5.4-5.6,9.9c1.1,4.5,4.9,7.2,9.6,6
		c1.8-0.5,3.8-1.9,4.6-4.1L359.5,45.7z"/>
	<path class="st0" d="M359.5,45.7c-1.1,2.8-3.2,4.3-5.9,5c-5.5,1.4-10.3-1.6-11.7-7.1c-1.4-5.5,1.4-10.4,6.9-11.8
		c2.4-0.6,4.8-0.4,6.9,1.2l-1.1,1.5c-1.5-1.4-3.6-1.7-5.4-1.2c-4.7,1.2-6.7,5.4-5.6,9.9c1.1,4.5,4.9,7.2,9.6,6
		c1.8-0.5,3.8-1.9,4.6-4.1L359.5,45.7z"/>
	<polygon class="st0" points="364.8,28.7 366.5,28.4 368,36.4 368.2,36.4 375.5,26.7 377.9,26.3 370.2,36.3 381.7,44.5 379.3,44.9 
		368.3,37.2 368.1,37.2 369.9,46.6 368.2,46.9 	"/>
	<polygon class="st0" points="364.8,28.7 366.5,28.4 368,36.4 368.2,36.4 375.5,26.7 377.9,26.3 370.2,36.3 381.7,44.5 379.3,44.9 
		368.3,37.2 368.1,37.2 369.9,46.6 368.2,46.9 	"/>
	<polygon class="st0" points="391,26.2 384.6,26.9 384.5,25.3 398.8,23.7 399,25.2 392.7,26 394.7,42.8 392.9,43 	"/>
	<polygon class="st0" points="391,26.2 384.6,26.9 384.5,25.3 398.8,23.7 399,25.2 392.7,26 394.7,42.8 392.9,43 	"/>
	<path class="st0" d="M411.6,22.7l1.8-0.1l8.8,18.1l-1.9,0.1L418,36l-9.8,0.6l-1.8,5l-1.8,0.1L411.6,22.7z M412.5,24.6L408.8,35
		l8.5-0.5L412.5,24.6z"/>
	<path class="st0" d="M411.6,22.7l1.8-0.1l8.8,18.1l-1.9,0.1L418,36l-9.8,0.6l-1.8,5l-1.8,0.1L411.6,22.7z M412.5,24.6L408.8,35
		l8.5-0.5L412.5,24.6z"/>
	
		<rect x="429.9" y="22.1" transform="matrix(1 -3.714863e-03 3.714863e-03 1 -0.1138 1.6004)" class="st0" width="1.7" height="18.6"/>
	
		<rect x="429.9" y="22.1" transform="matrix(1 -3.714863e-03 3.714863e-03 1 -0.1138 1.6004)" class="st0" width="1.7" height="18.6"/>
	<polygon class="st0" points="442.6,22.3 444.4,22.3 443.6,39.3 452.2,39.7 452.1,41.3 441.8,40.8 	"/>
	<polygon class="st0" points="442.6,22.3 444.4,22.3 443.6,39.3 452.2,39.7 452.1,41.3 441.8,40.8 	"/>
	<path class="st0" d="M460.7,38.5c0.8,1.6,2.2,2.6,4,2.7c2.3,0.2,4.3-1,4.5-3.2c0.5-5.2-9.3-3.1-8.6-10.1c0.3-3.3,3.3-4.8,6.4-4.5
		c2,0.2,3.7,1.1,4.8,2.8l-1.6,0.9c-0.7-1.3-1.8-2-3.4-2.2c-2.2-0.2-4.3,0.7-4.5,3.1c-0.6,5.6,9.3,3.2,8.6,10.1
		c-0.3,3.3-3.3,4.9-6.3,4.6c-2.4-0.2-4.5-1.2-5.7-3.4L460.7,38.5z"/>
	<path class="st0" d="M460.7,38.5c0.8,1.6,2.2,2.6,4,2.7c2.3,0.2,4.3-1,4.5-3.2c0.5-5.2-9.3-3.1-8.6-10.1c0.3-3.3,3.3-4.8,6.4-4.5
		c2,0.2,3.7,1.1,4.8,2.8l-1.6,0.9c-0.7-1.3-1.8-2-3.4-2.2c-2.2-0.2-4.3,0.7-4.5,3.1c-0.6,5.6,9.3,3.2,8.6,10.1
		c-0.3,3.3-3.3,4.9-6.3,4.6c-2.4-0.2-4.5-1.2-5.7-3.4L460.7,38.5z"/>
	<path class="st0" d="M502.1,42.7l3.6-4.2l1.7,0.4L503,44l3.3,5.2l-2.3-0.5l-2.1-3.5c-1.9,1.7-3.8,2.6-6.3,2.1
		c-3.1-0.6-5.1-3.2-4.5-6.4c0.6-2.8,2.9-3.7,5.2-4.5c-0.8-1.4-1.7-3.1-1.3-4.8c0.5-2.6,3-3.7,5.4-3.2c2.2,0.4,3.8,2.4,3.3,4.7
		c-0.5,2.6-2.8,3.3-5,4L502.1,42.7z M497.1,37.6c-1.8,0.6-3.9,1.4-4.3,3.5c-0.5,2.3,1.1,4.2,3.3,4.6c1.9,0.4,3.6-0.6,4.9-1.9
		L497.1,37.6z M496.7,31.9c-0.3,1.3,0.7,2.9,1.2,3.9c1.6-0.5,3.7-1,4.1-3c0.3-1.4-0.6-2.7-2.1-3C498.4,29.6,497,30.4,496.7,31.9"/>
	<path class="st0" d="M502.1,42.7l3.6-4.2l1.7,0.4L503,44l3.3,5.2l-2.3-0.5l-2.1-3.5c-1.9,1.7-3.8,2.6-6.3,2.1
		c-3.1-0.6-5.1-3.2-4.5-6.4c0.6-2.8,2.9-3.7,5.2-4.5c-0.8-1.4-1.7-3.1-1.3-4.8c0.5-2.6,3-3.7,5.4-3.2c2.2,0.4,3.8,2.4,3.3,4.7
		c-0.5,2.6-2.8,3.3-5,4L502.1,42.7z M497.1,37.6c-1.8,0.6-3.9,1.4-4.3,3.5c-0.5,2.3,1.1,4.2,3.3,4.6c1.9,0.4,3.6-0.6,4.9-1.9
		L497.1,37.6z M496.7,31.9c-0.3,1.3,0.7,2.9,1.2,3.9c1.6-0.5,3.7-1,4.1-3c0.3-1.4-0.6-2.7-2.1-3C498.4,29.6,497,30.4,496.7,31.9"/>
	<path class="st0" d="M540.8,56c-2.4,1.8-5,1.9-7.6,1.1c-5.4-1.7-7.9-6.8-6.2-12.2c1.7-5.4,6.7-8.1,12.1-6.4
		c2.4,0.8,4.3,2.3,5.2,4.7l-1.7,0.7c-0.6-2-2.2-3.3-4-3.9c-4.6-1.5-8.6,1-10,5.4c-1.4,4.4,0.4,8.7,5,10.2c1.8,0.6,4.2,0.4,6.1-1.1
		L540.8,56z"/>
	<path class="st0" d="M540.8,56c-2.4,1.8-5,1.9-7.6,1.1c-5.4-1.7-7.9-6.8-6.2-12.2c1.7-5.4,6.7-8.1,12.1-6.4
		c2.4,0.8,4.3,2.3,5.2,4.7l-1.7,0.7c-0.6-2-2.2-3.3-4-3.9c-4.6-1.5-8.6,1-10,5.4c-1.4,4.4,0.4,8.7,5,10.2c1.8,0.6,4.2,0.4,6.1-1.1
		L540.8,56z"/>
	<path class="st0" d="M562.5,47c5.2,2.1,7.4,7.4,5.2,12.7c-2.1,5.2-7.3,7.6-12.6,5.4c-5.2-2.1-7.4-7.4-5.2-12.7
		C552,47.2,557.2,44.9,562.5,47 M555.7,63.7c4.5,1.8,8.6-0.3,10.4-4.6c1.7-4.3,0.3-8.7-4.2-10.5c-4.5-1.8-8.6,0.3-10.4,4.6
		C549.8,57.4,551.2,61.8,555.7,63.7"/>
	<path class="st0" d="M562.5,47c5.2,2.1,7.4,7.4,5.2,12.7c-2.1,5.2-7.3,7.6-12.6,5.4c-5.2-2.1-7.4-7.4-5.2-12.7
		C552,47.2,557.2,44.9,562.5,47 M555.7,63.7c4.5,1.8,8.6-0.3,10.4-4.6c1.7-4.3,0.3-8.7-4.2-10.5c-4.5-1.8-8.6,0.3-10.4,4.6
		C549.8,57.4,551.2,61.8,555.7,63.7"/>
	<polygon class="st0" points="580.4,55.3 582.7,56.5 581.7,73.5 594.8,62.6 597,63.8 588.6,80.3 587,79.5 594.5,64.9 594.4,64.9 
		580.7,76.3 580,75.9 581,58.1 581,58.1 573.5,72.7 572,71.9 	"/>
	<polygon class="st0" points="580.4,55.3 582.7,56.5 581.7,73.5 594.8,62.6 597,63.8 588.6,80.3 587,79.5 594.5,64.9 594.4,64.9 
		580.7,76.3 580,75.9 581,58.1 581,58.1 573.5,72.7 572,71.9 	"/>
	
		<rect x="593.3" y="76.9" transform="matrix(0.5073 -0.8618 0.8618 0.5073 229.9221 557.585)" class="st0" width="18.6" height="1.7"/>
	
		<rect x="593.3" y="76.9" transform="matrix(0.5073 -0.8618 0.8618 0.5073 229.9221 557.585)" class="st0" width="18.6" height="1.7"/>
	<path class="st0" d="M617.3,75.8l4.8,3.2c8,5.4,4,12.2,3.2,13.3c-0.8,1.1-5.5,7.5-13.5,2.2l-4.8-3.2L617.3,75.8z M609.3,90.9l3,2
		c4.1,2.7,8.6,2.9,11.6-1.5c3-4.4,1.1-8.5-3-11.3l-3-2L609.3,90.9z"/>
	<path class="st0" d="M617.3,75.8l4.8,3.2c8,5.4,4,12.2,3.2,13.3c-0.8,1.1-5.5,7.5-13.5,2.2l-4.8-3.2L617.3,75.8z M609.3,90.9l3,2
		c4.1,2.7,8.6,2.9,11.6-1.5c3-4.4,1.1-8.5-3-11.3l-3-2L609.3,90.9z"/>
	<path class="st0" d="M643.1,94l1.4,1.1l-5.2,19.5l-1.5-1.2l1.4-5.1l-7.8-6l-4.7,2.6l-1.4-1.1L643.1,94z M642.6,96l-9.7,5.4l6.7,5.2
		L642.6,96z"/>
	<path class="st0" d="M643.1,94l1.4,1.1l-5.2,19.5l-1.5-1.2l1.4-5.1l-7.8-6l-4.7,2.6l-1.4-1.1L643.1,94z M642.6,96l-9.7,5.4l6.7,5.2
		L642.6,96z"/>
	<path class="st0" d="M243.7,541.6l4,2.8c2.1,1.5,4.1,3.7,1.9,6.8c-1,1.4-2.6,2-4.5,1.1l0,0c1.7,1.4,2.1,3.6,0.7,5.6
		c-2.2,3.2-5.5,1.9-7.4,0.6l-4.4-3.1L243.7,541.6z M236.1,555.2l3,2.1c3,2.1,4.7,0.8,5.4-0.2c1.4-2.1,0.3-4-1.3-5.2l-3.2-2.2
		L236.1,555.2z M240.8,548.5l2.7,1.9c2.7,1.9,4.2,0.8,4.8-0.1c1.4-1.9,0.4-3.4-1.3-4.6l-2.9-2L240.8,548.5z"/>
	<path class="st0" d="M243.7,541.6l4,2.8c2.1,1.5,4.1,3.7,1.9,6.8c-1,1.4-2.6,2-4.5,1.1l0,0c1.7,1.4,2.1,3.6,0.7,5.6
		c-2.2,3.2-5.5,1.9-7.4,0.6l-4.4-3.1L243.7,541.6z M236.1,555.2l3,2.1c3,2.1,4.7,0.8,5.4-0.2c1.4-2.1,0.3-4-1.3-5.2l-3.2-2.2
		L236.1,555.2z M240.8,548.5l2.7,1.9c2.7,1.9,4.2,0.8,4.8-0.1c1.4-1.9,0.4-3.4-1.3-4.6l-2.9-2L240.8,548.5z"/>
	<path class="st0" d="M264.2,555.3l1.4,0.9l-2.8,18.2l-1.5-0.9l0.8-4.8l-7.7-4.7l-4,2.8l-1.4-0.9L264.2,555.3z M263.9,557.2
		l-8.2,5.9l6.6,4.1L263.9,557.2z"/>
	<path class="st0" d="M264.2,555.3l1.4,0.9l-2.8,18.2l-1.5-0.9l0.8-4.8l-7.7-4.7l-4,2.8l-1.4-0.9L264.2,555.3z M263.9,557.2
		l-8.2,5.9l6.6,4.1L263.9,557.2z"/>
	<path class="st0" d="M277.7,563.2l3.9,2.1c1.2,0.6,5.3,2.8,3.2,6.8c-1.5,2.9-4.1,2.5-5.9,1.8l0.6,9.5l-1.6-0.8l-0.5-9.3l-2.6-1.4
		l-3.8,7.1l-1.4-0.7L277.7,563.2z M275.6,570.5l3,1.6c2.9,1.6,4.4,0.2,4.9-0.8c0.5-1,0.8-3-2.1-4.5l-3-1.6L275.6,570.5z"/>
	<path class="st0" d="M277.7,563.2l3.9,2.1c1.2,0.6,5.3,2.8,3.2,6.8c-1.5,2.9-4.1,2.5-5.9,1.8l0.6,9.5l-1.6-0.8l-0.5-9.3l-2.6-1.4
		l-3.8,7.1l-1.4-0.7L277.7,563.2z M275.6,570.5l3,1.6c2.9,1.6,4.4,0.2,4.9-0.8c0.5-1,0.8-3-2.1-4.5l-3-1.6L275.6,570.5z"/>
	<path class="st0" d="M294.2,571.6l4.1,1.8c1.2,0.6,5.5,2.5,3.6,6.5c-1.3,2.9-3.9,2.7-5.7,2.2l1.1,9.4l-1.6-0.7l-1-9.3l-2.7-1.2
		l-3.3,7.3l-1.4-0.7L294.2,571.6z M292.5,579.1l3,1.4c3,1.4,4.4,0,4.9-1.1c0.5-1.1,0.7-3-2.4-4.4l-3-1.4L292.5,579.1z"/>
	<path class="st0" d="M294.2,571.6l4.1,1.8c1.2,0.6,5.5,2.5,3.6,6.5c-1.3,2.9-3.9,2.7-5.7,2.2l1.1,9.4l-1.6-0.7l-1-9.3l-2.7-1.2
		l-3.3,7.3l-1.4-0.7L294.2,571.6z M292.5,579.1l3,1.4c3,1.4,4.4,0,4.9-1.1c0.5-1.1,0.7-3-2.4-4.4l-3-1.4L292.5,579.1z"/>
	<polygon class="st0" points="311.3,579.1 312.8,579.7 306.5,595.4 305.1,594.8 	"/>
	<polygon class="st0" points="311.3,579.1 312.8,579.7 306.5,595.4 305.1,594.8 	"/>
	<path class="st0" d="M328.6,585c4.9,1.6,7.1,6.3,5.5,11.2c-1.6,4.9-6.2,7.3-11.1,5.6c-4.9-1.6-7.1-6.3-5.5-11.2
		C319.1,585.8,323.7,583.4,328.6,585 M323.4,600.5c4.2,1.4,7.8-0.8,9.2-4.8c1.3-4-0.2-8-4.4-9.4c-4.2-1.4-7.8,0.8-9.2,4.8
		C317.7,595.2,319.2,599.1,323.4,600.5"/>
	<path class="st0" d="M328.6,585c4.9,1.6,7.1,6.3,5.5,11.2c-1.6,4.9-6.2,7.3-11.1,5.6c-4.9-1.6-7.1-6.3-5.5-11.2
		C319.1,585.8,323.7,583.4,328.6,585 M323.4,600.5c4.2,1.4,7.8-0.8,9.2-4.8c1.3-4-0.2-8-4.4-9.4c-4.2-1.4-7.8,0.8-9.2,4.8
		C317.7,595.2,319.2,599.1,323.4,600.5"/>
	
		<rect x="345.3" y="600.7" transform="matrix(0.2302 -0.9732 0.9732 0.2302 -312.9775 807.2605)" class="st0" width="16.9" height="1.6"/>
	
		<rect x="345.3" y="600.7" transform="matrix(0.2302 -0.9732 0.9732 0.2302 -312.9775 807.2605)" class="st0" width="16.9" height="1.6"/>
	<polygon class="st0" points="368.8,597.5 363.1,596.4 363.4,595 376.3,597.4 376,598.8 370.3,597.8 367.5,613 365.9,612.7 	"/>
	<polygon class="st0" points="368.8,597.5 363.1,596.4 363.4,595 376.3,597.4 376,598.8 370.3,597.8 367.5,613 365.9,612.7 	"/>
	<path class="st0" d="M386.8,598.9l1.6,0.2l4.9,17.7l-1.8-0.2l-1.2-4.7l-8.9-1.2l-2.5,4.2l-1.6-0.2L386.8,598.9z M387.3,600.7
		l-5.1,8.7l7.7,1L387.3,600.7z"/>
	<path class="st0" d="M386.8,598.9l1.6,0.2l4.9,17.7l-1.8-0.2l-1.2-4.7l-8.9-1.2l-2.5,4.2l-1.6-0.2L386.8,598.9z M387.3,600.7
		l-5.1,8.7l7.7,1L387.3,600.7z"/>
	<polygon class="st0" points="402.3,600.6 403.9,600.7 402.8,616.2 410.7,616.7 410.6,618.1 401.1,617.5 	"/>
	<polygon class="st0" points="402.3,600.6 403.9,600.7 402.8,616.2 410.7,616.7 410.6,618.1 401.1,617.5 	"/>
	<polygon class="st0" points="418.3,618.4 419.9,618.4 420.3,601.5 418.7,601.5 	"/>
	<polygon class="st0" points="418.3,618.4 419.9,618.4 420.3,601.5 418.7,601.5 	"/>
	<path class="st0" d="M435.4,603.2l4.1,9.2l-7.8,0.2L435.4,603.2z M434.6,601.5l-7,17.1l1.6,0l1.8-4.5l9-0.2l2,4.5l1.8,0l-7.6-16.8
		L434.6,601.5z"/>
	<path class="st0" d="M434.6,601.5l1.6,0l7.6,16.8l-1.8,0l-2-4.5l-9,0.2l-1.8,4.5l-1.6,0L434.6,601.5z M435.4,603.2l-3.7,9.4
		l7.8-0.2L435.4,603.2z"/>
	<polygon class="st0" points="464.9,602.9 468.2,601.4 468.7,602.5 465.4,604 467.9,606.6 467.1,607.4 464.6,604.7 462.8,608 
		461.8,607.4 463.6,604.2 460,603.5 460.2,602.3 463.8,603.1 463.4,599.5 464.5,599.3 	"/>
	<polygon class="st0" points="464.9,602.9 468.2,601.4 468.7,602.5 465.4,604 467.9,606.6 467.1,607.4 464.6,604.7 462.8,608 
		461.8,607.4 463.6,604.2 460,603.5 460.2,602.3 463.8,603.1 463.4,599.5 464.5,599.3 	"/>
	<path class="st0" d="M489.8,609.3c1.1,1.2,2.6,1.6,4.2,1.3c2.1-0.4,3.5-2,3-4c-1-4.6-8.9-0.1-10.3-6.4c-0.6-3,1.6-5.1,4.4-5.7
		c1.8-0.4,3.5-0.1,5,1.1l-1.1,1.2c-1-0.9-2.1-1.3-3.6-1c-2,0.4-3.5,1.8-3.1,3.9c1,5,9,0.2,10.3,6.4c0.6,3-1.5,5.2-4.2,5.7
		c-2.2,0.5-4.2,0.2-5.9-1.4L489.8,609.3z"/>
	<path class="st0" d="M489.8,609.3c1.1,1.2,2.6,1.6,4.2,1.3c2.1-0.4,3.5-2,3-4c-1-4.6-8.9-0.1-10.3-6.4c-0.6-3,1.6-5.1,4.4-5.7
		c1.8-0.4,3.5-0.1,5,1.1l-1.1,1.2c-1-0.9-2.1-1.3-3.6-1c-2,0.4-3.5,1.8-3.1,3.9c1,5,9,0.2,10.3,6.4c0.6,3-1.5,5.2-4.2,5.7
		c-2.2,0.5-4.2,0.2-5.9-1.4L489.8,609.3z"/>
	<path class="st0" d="M508.7,590.7l1.6-0.4l11.3,14.5l-1.7,0.5l-3-3.9l-8.7,2.4l-0.7,4.8L506,609L508.7,590.7z M509.9,592.1l-1.4,10
		l7.5-2.1L509.9,592.1z"/>
	<path class="st0" d="M508.7,590.7l1.6-0.4l11.3,14.5l-1.7,0.5l-3-3.9l-8.7,2.4l-0.7,4.8L506,609L508.7,590.7z M509.9,592.1l-1.4,10
		l7.5-2.1L509.9,592.1z"/>
	<polygon class="st0" points="523.6,586.3 525.6,585.7 540.2,596.3 540.2,596.2 535.3,582.2 536.8,581.7 542.4,597.7 540.5,598.4 
		525.9,587.8 525.8,587.8 530.7,601.8 529.2,602.3 	"/>
	<polygon class="st0" points="523.6,586.3 525.6,585.7 540.2,596.3 540.2,596.2 535.3,582.2 536.8,581.7 542.4,597.7 540.5,598.4 
		525.9,587.8 525.8,587.8 530.7,601.8 529.2,602.3 	"/>
	<polygon class="st0" points="549.3,578.3 543.9,580.5 543.4,579.2 555.5,574.1 556,575.4 550.7,577.6 556.8,591.9 555.3,592.5 	"/>
	<polygon class="st0" points="549.3,578.3 543.9,580.5 543.4,579.2 555.5,574.1 556,575.4 550.7,577.6 556.8,591.9 555.3,592.5 	"/>
	
		<rect x="565.5" y="569.8" transform="matrix(0.9015 -0.4327 0.4327 0.9015 -194.4661 301.9525)" class="st0" width="1.6" height="16.9"/>
	
		<rect x="565.5" y="569.8" transform="matrix(0.9015 -0.4327 0.4327 0.9015 -194.4661 301.9525)" class="st0" width="1.6" height="16.9"/>
	<path class="st0" d="M576,563.8l1.4-0.8l14.4,11.5l-1.6,0.8l-3.8-3.1l-7.9,4.3l0.5,4.9l-1.4,0.8L576,563.8z M577.5,565l1,10
		l6.8-3.7L577.5,565z"/>
	<path class="st0" d="M576,563.8l1.4-0.8l14.4,11.5l-1.6,0.8l-3.8-3.1l-7.9,4.3l0.5,4.9l-1.4,0.8L576,563.8z M577.5,565l1,10
		l6.8-3.7L577.5,565z"/>
	<path class="st0" d="M609.9,561.9c-1,2-2.6,3.5-4.5,4.7c-4.4,2.8-9.4,1.6-12.2-2.8c-2.8-4.4-1.8-9.4,2.6-12.2
		c2.1-1.4,4.2-1.8,6.4-1.3l-0.3,1.6c-1.5-0.5-3.8-0.1-5.3,0.9c-3.7,2.4-4.3,6.6-2,10.2c2.3,3.5,6.3,4.8,10.1,2.4
		c1.5-1,2.8-2.1,3.4-3.4l-3.1-4.8l-3.4,2.2l-0.8-1.2l4.8-3L609.9,561.9z"/>
	<path class="st0" d="M609.9,561.9c-1,2-2.6,3.5-4.5,4.7c-4.4,2.8-9.4,1.6-12.2-2.8c-2.8-4.4-1.8-9.4,2.6-12.2
		c2.1-1.4,4.2-1.8,6.4-1.3l-0.3,1.6c-1.5-0.5-3.8-0.1-5.3,0.9c-3.7,2.4-4.3,6.6-2,10.2c2.3,3.5,6.3,4.8,10.1,2.4
		c1.5-1,2.8-2.1,3.4-3.4l-3.1-4.8l-3.4,2.2l-0.8-1.2l4.8-3L609.9,561.9z"/>
	<path class="st0" d="M614.5,538.6c4.1-3.1,9.2-2.3,12.4,1.8c3.1,4.1,2.5,9.3-1.6,12.4c-4.1,3.1-9.2,2.3-12.4-1.8
		C609.7,546.8,610.3,541.7,614.5,538.6 M624.3,551.6c3.5-2.7,3.8-6.9,1.2-10.3c-2.5-3.4-6.7-4.3-10.2-1.6c-3.5,2.7-3.8,6.9-1.2,10.3
		C616.6,553.3,620.8,554.3,624.3,551.6"/>
	<path class="st0" d="M614.5,538.6c4.1-3.1,9.2-2.3,12.4,1.8c3.1,4.1,2.5,9.3-1.6,12.4c-4.1,3.1-9.2,2.3-12.4-1.8
		C609.7,546.8,610.3,541.7,614.5,538.6 M624.3,551.6c3.5-2.7,3.8-6.9,1.2-10.3c-2.5-3.4-6.7-4.3-10.2-1.6c-3.5,2.7-3.8,6.9-1.2,10.3
		C616.6,553.3,620.8,554.3,624.3,551.6"/>
	<path class="st0" d="M133.5,265.5c-20,0-54.2,15-54.2,60.5c0,44,35.4,60.1,54.2,60.1c22.8,0,56.3-16.3,56.3-60.1
		C189.9,278.3,153.2,265.5,133.5,265.5 M133.5,377.1c-17.9,0-35.3-16.6-35.3-51.1c0-39.3,20.4-51.5,35.3-51.5
		c17.2,0,37.4,12.2,37.4,51.5C171,359.4,155.4,377.1,133.5,377.1"/>
	<path class="st0" d="M213.2,282l68.1,99.4c0,0,1.3,1.9,3,1.9h1.6V277.1c0,0-0.3-6.1,2-6.8c4.6-1.4,12.4-0.5,12.4-5.7
		c0-4.1-1.8-3-3.6-2.9c-4,0.2-9.5,1.9-16.3,2.3c-7.5,0.4-15.3-0.6-19.3,0.1c-1.1,0.2-2.9,1-2.9,3.3c0,2.6,2.5,4.2,5.2,3.5
		c4.5-1.1,10.3-1.6,12.2-0.2c1.8,1.3,1.5,7.7,1.5,7.7v62.9L275,338l-51-72.7c0,0-1.1-0.9-2.6-0.3c-1.5,0.6-8.1,1.1-12.6,1.1
		c-4.5,0-15.3-1-18.1-0.9c-2.4,0.1-4.3,0.8-4.3,4.1c0,3.3,3.3,3.9,5.3,3.9c1.3,0,8.2-0.7,10.5,0c2.5,0.7,2.1,4.9,2.1,4.9l0.1,93.7
		c0,0-0.1,1.8-0.9,2.7c-1.4,1.5-3.7,4.2-7,5.4c-3.3,1.2-4.8-0.3-7.5-0.3c-2.4,0-3.6,1.5-3.6,3.7c0,2.3,3.5,3.6,8,3.6
		c2.1,0,9.5-2.9,15.4-2.9c5.9,0,13,2.2,17.4,2.2h5.2c0,0,1.6-0.7,1.6-3.7c0-3-4.2-2.8-6-2.8c-1.8,0-5.3,0.3-9.6-1.4
		c-4.3-1.8-3.9-3.4-4-4.7c-0.1-1.3-0.1-3.3-0.1-3.3L213.2,282z"/>
	<path class="st0" d="M301.2,282.9c0,12.6,7.2,20.9,16.3,28.8c5.9,5,39.6,21.5,39.6,35.9c0,10.9-11.2,19.4-21.2,19.4
		c-10,0-20-3.7-25.1-8.7c-5-5-4.5-14.5-4.5-14.5s-0.5-4.7-3-4.7c-2.6,0-1.9,2.7-1.9,4.7c0,2.1,0.9,11.2,0.9,16.7
		c0,5.5-2,16.9-2,20.1c0,3.2,2,3.2,2.9,2.2c0.9-0.9,2.5-5.9,4.8-9.3c2.3-3.5,7.3-2.8,18.4,1.6c3.5,1.4,8.4,1.9,13.4,1.3
		c8.4-0.9,17.9-5.7,23.3-11.1c5.4-5.4,10.8-11.6,10.8-23.5c0-11.9-4.9-16.8-12.8-23.2c-6.8-5.5-42.9-24.6-42.9-39.8
		c0-11.2,4.3-18.3,18.2-18.3c13.9,0,22.5,10.4,22.5,15.7c0,5.3,0.5,10,2.5,11.3c2,1.3,3.4,1.1,4.2,0.2c0.8-0.8,0.5-41.2,0.5-41.2
		s-3.4-1.1-4.7,1.4c-1.4,2.4-2.5,9.3-3.9,10.6c-1.3,1.3-2.8,1.1-5.4-0.7c-2.6-1.8-10.2-5.5-18.9-5.5
		C325.8,252.6,301.2,259.9,301.2,282.9"/>
	<path class="st0" d="M385,260.9v90.4c0,0-0.6,6.4-4.4,9.4c-2.9,2.3-11.1,4.7-11.1,7.2c0,1.9,1.8,1.6,4.5,1
		c2.7-0.6,16.2-5.4,21.7-6.9c5.5-1.6,21.5-7.2,30.7-10.3c9.2-3.1,23.3-7.9,23.3-7.9v-29.2c0,0,0-3.6-2.5-3.4c-2.5,0.2-4.2,1.9-4,5.3
		c0.2,3.4-2.6,17.4-8.7,21.8c-5.4,3.9-30.3,10-30.3,10v-45.8l20.4-6.8c0,0,2-0.7,2.4,1.5c0.5,2.6-0.4,7.8-0.4,9.4
		c0,1.4,1.2,2.7,2.8,2.7c1.5,0,2.6-1.6,2.6-2.7c0.3-9.1,0-34.6,0-34.6s0.1-2.8-2.6-2.8c-1.7,0-2.7,2.4-2.8,4.5
		c-0.1,3.7,2.3,7.9-1.7,11.4c-1.6,1.5-21.3,7.5-21.3,7.5v-45.6l27.3-9.4c0,0,3.7-1.1,6,0.8c2.3,1.9,2.7,3.5,3.3,6.4
		c0.4,2,1.6,8.7,2.5,10.7c0.4,0.9,2,2.9,4,2.3c2.2-0.7,1.3-2.9,1.3-5.4c0-2-2-13-2.4-22c-0.1-1.4,0.9-4.1,0-5.1
		c-2.5-2.7-3.8-0.5-9.5,1.5c-16.7,5.8-53.2,17.5-58.1,18.7c-2.8,0.6-5,2.4-5,4.8c0,1.4,0.5,3.9,3.3,3.8c1.5,0,5-1.5,7.1-0.1
		C385.8,255.3,385,260.9,385,260.9"/>
	<path class="st0" d="M593.1,333.2c-16.1,0-24.9,9.6-24.9,17.1c0,12.1,11.2,11.4,11.2,11.4s1.9-13.7,14.1-13.7c8.1,0,14,7.7,14,16.9
		c0,12.8-4.7,22.7-20.8,22.7c-25.1,0-54.5-83.3-60.2-101.2c-4.4-14-12.9-19.3-28.2-21.2l0.2,3.8c0,0,11.8-6.7,14.2-8.3
		c5.6-3.6,19.6-11.2,19.6-29.9c0-18.7-24.5-29.6-39.3-24.4c-10.1,3.5-19.5,7.2-26.1,9.1c-3.5,1-13.2,3.8-14.5,5.3
		c-2.3,2.8-1.3,4.7-0.2,6c2.1,2.5,4.8-0.7,8.2-0.1c3.6,0.6,3.1,5.6,3.1,5.6v94c0,0-0.6,4.7-3.5,5.9c-5.3,2.3-8.7,3.7-8.2,7.3
		c0.3,2.8,3.3,4,12.7-0.7c6-3,8.4-4.8,11.7-5.7c5-1.4,13.3-3.3,18.9-5.4c5.6-2.1,11.7-3.2,10.6-7.3c-0.8-3-3.8-3.2-6.6-2
		c-3.2,1.4-9.2,3.9-13.3,3.2c-4.1-0.8-3.7-6.4-3.7-6.4v-39.7c0,0,7.2-3,13.1,0c5.9,3,9.8,11.4,17,33.1
		c14.6,44.6,39.9,87.7,75.1,87.7c15.2,0,33-11.6,33-33C620.2,344.3,605.1,333.2,593.1,333.2 M498,259.3c-5.4,3.2-16,6.4-16,6.4v-0.9
		v-44.3c0,0,12.4-5.4,15.7-5.7c9.8-0.9,18.5,7.4,16,20.2C511.2,247.8,504.5,255.3,498,259.3"/>
	<path class="st0" d="M596.4,239.1c-3-0.5-7.9-0.5-8.7-0.4l0.2,2.6c4.7,0,29.7-23.2,29.7-48.5c0-32.9-20.7-51.3-40.4-59.2
		c-49.8-19.9-93.9,12.6-93.9,43.7c0,15.5,11,23.2,22.6,23.2c7.3,0,17.6-6.5,17.6-19c0,0-6.9,6.6-11.7,7.7
		c-4.8,1.1-13.2-1.2-13.2-12.6s13.4-37.5,44-37.5c30.6,0,53.9,27.5,53.9,51.7s-8.4,37.6-17.8,43.1c-7.2,4.3-13.2,5.3-13.2,5.3V166
		c0,0-1.5,10.9-12.4,17.5c-8.2,4.9-19.6,7.7-21,9.6c-2.5,3.2,0.1,6.5,4,5.7c2.7-0.5,5.6-2.8,9.3-2.1c2.1,0.4,1.6,5.3,1.6,5.3V298
		c0,0-0.1,2.6-2.3,4.3c-2.3,1.7-4.4,0.9-5.6,2c-0.8,0.7-1.9,2.5-1.1,4.3c1.6,4,11.1,2.5,14.3,0.5c3.2-1.9,4.7-2.7,7.6-3.6
		c3-0.9,13.9-2.4,22.3-3.8c14.5-2.4,36.7-18.2,36.7-39.1C618.8,248,605.6,240.7,596.4,239.1 M581.6,289.4
		c-6.4,2.6-16.4,4.6-16.4,4.6v-43.8c6-1.6,18.7-6,26-3.3c7.2,2.6,9.1,6.7,9.1,15.6C600.3,271.4,592.1,285.1,581.6,289.4"/>
	<path class="st0" d="M816.1,251.9c-8.2,0-10.5,6.4-10.5,10.3c0,3.9,2.8,5.1,5.9,5.1c3,0,5.2-2.3,5.2-5.1v-2.8c0,0,3.3,0.9,3.3,7.7
		c0,6.8-4,20.2-18.8,20.2c-14.8,0-16.2-34.5-18.1-42.2c-1.9-7.7-2.3-21.1-11.8-26.4c-1.4-0.8-5-2.6-8.5-3.8
		c3.3-1.4,7.3-3.5,10.9-6.1c4.6-3.4,15.5-11.9,15.5-26.8c0-12.5-10.9-24.6-20.5-25.8c-9.6-1.2-25.5-1.4-38.9-0.2
		c-13.4,1.3-24.7,0.9-26.7,3.1c-2.3,2.6-0.6,6,3.1,6c3.4,0,8-0.4,10.5,0.2c3.3,0.7,3,6.6,3,6.6l0,91.3c0,0,0.1,7.3-5.8,8.2
		c-1.2-0.1-2.1-0.2-2.6-0.3c-2.6-0.7-6.2-4.4-7.5-9.2l-34.4-98.8c0,0-5.8,2.2-16.1,2.5c-17.5,0.5-31.9,4.7-31.9,16
		c0,6,3.2,11.3,10.4,11.3c5.8,0,6.6-6,6.6-6s-2.3,0.7-4.7,0.3c-3-0.5-4.4-2-4.4-5.3c0-6,10.9-6.4,17.3-7.2c2.7-0.3,4.6-0.9,4.6-0.9
		l-29.1,106.2c0,0-1.1,3.4-2.4,4.8c-1.7,2-4,2.4-6.1,2.9c-3.6,0.8-5.7,0.4-5.7,4.8c0,1.9,5.3,3.6,11.2,1.2c3.9-1.6,8.1-2.4,11.6-2.7
		c3.5-0.2,13.4-1.9,16.4-2.5c2.4-0.5,3.1-2.2,3.1-4c0-2.1-1.9-3.3-3.9-3c-3.1,0.4-10.9,3.3-14.8,2.9c-1.8-0.2-2.4-2.5-1.9-4
		c0.8-3,27.1-97.8,27.1-97.8l18.9,54.2c0,0,3.4,7.5,6.6,17.3c2.3,7.1,5.1,13.3,5.6,16.6c0.3,2.3-0.9,3.9-2.3,4.5
		c-2.8,1.3-4.7,0.5-9.3,0.9c-2.7,0.3-3.3,2.2-3.1,4.5c0.3,2.4,4.3,3.5,9.8,1.8c6.1-1.9,27.2-3.2,30.4-3.3c2-0.1,17.6-1,28.2-0.8
		c3.6,0.1,6.8,0.6,9.4,0.6c2.1,0,4.8-1.3,4.8-3.9c0-2.6-2.4-3.5-4.5-3.6c-1.9,0-3.5-0.1-5.2-0.1c-8.7,0-8.1-9.4-8.1-9.4v-40.5
		c0,0,17.8-2.6,21.5,9.5c3.7,12.2,9.2,44.9,13.8,51.9c4.6,7,12,12.5,26,12.5c14.1,0,30.7-10.7,30.7-25
		C830.3,258.9,824.3,251.9,816.1,251.9 M753.5,207.9c-5.6,4-15.2,2.7-15.2,2.7v-45.5c0,0,12.3-2.5,20,0.4c8.2,3,10.9,7.8,10.9,18.4
		C769.2,194.5,759.2,203.9,753.5,207.9"/>
	<path class="st0" d="M680.9,239c0,0-6.7-9.6-24.9-9.6s-24.2,14-24.2,18.8s4.6,8.5,6.4,1.1c1.6-6.3,9.4-10.9,16-10.9
		c16.2,0,22.8,5.5,28.3,15.6C688.6,265.1,680.9,239,680.9,239"/>
	<path class="st0" d="M437.9,492.8c0.4-0.2,0.8-0.3,1.5-0.6c0.3,2.5,0.6,5,1,7.5c0.8,6.9,1.6,13.8,1.5,20.7
		c-0.1,3.9,0.2,7.8,0.2,11.7c0,1.1-0.1,2.2-0.3,3.2c-0.2,1.3,0.4,2.1,1.7,2.5c0.2-2.4,0.4-4.6,0.6-6.9c0-0.4,0-0.9,0.1-1.3
		c0.3-4.1,0.9-8.2,0.9-12.2c0-4.6-0.6-9.3-1-13.9c-0.2-2.1-0.5-4.1-0.6-6.2c0-0.3,0.2-0.5,0.4-0.8c0.2,0.2,0.5,0.5,0.5,0.7
		c0.2,2,0.3,3.9,0.5,5.9c0.2,1.8,0.4,3.5,0.7,5.3c0.1,0.5,0.5,0.9,1.1,1.2c0,2.9,0,5.7,0,8.6c0,1.1-0.3,2.1-0.5,3.5
		c0.1,0.3,0.3,1,0.3,1.7c-0.1,3-0.3,6-0.4,9c0,1.8,0.2,3.6,0.2,5.3c0,0.3,0,0.6-0.3,0.9c-1.7-5.1,0-10.3-0.6-15.5
		c-0.2,1.9-0.4,3.9-0.5,5.8c-0.2,2.8-0.4,5.5-0.5,8.3c0,0.5,0.4,1.3,0.9,1.6c1.1,0.8,2.3,1.3,3.6,2.1c0.8-8.9,0.9-17.7,0.4-26.5
		c0.2,0,0.4,0,0.7,0v27c2.6,0.6,5.4,1.6,8.4,2c6.4,0.8,12.7,0.4,19.1-0.5c6.1-0.9,11.7-3.3,17.2-5.9c2.3-1.1,4.6-2.3,6.8-3.6
		c0.4-0.2,0.8-1,0.8-1.5c-0.4-6.3-0.8-12.5-1.3-18.8c-0.2-2.9-0.3-5.8-0.4-8.7c-0.3-5.7-0.6-11.3-0.8-17c-0.1-2.6,0-5.1-0.2-7.7
		c-0.4-6,0.4-11.9,0.8-17.9c0.5-8.2,3.1-16.1,4.5-24.2c0.9-5.1,2-10.2,3.1-15.3c0-0.2,0-0.4,0-0.7c-2.1,0.5-4.1,1.2-5.3,3.1
		c-1.3,2-3.3,2.6-5.3,3.3c-4.5,1.5-8.3,0.3-11.2-3.4c-0.2-0.2-0.4-0.5-0.6-0.7c-0.1-0.1-0.2-0.2-0.4-0.3c-2.9,2.5-6.5,2.3-9.8,2.5
		c-7.5,0.3-14.9,0.1-22.4-0.1c-2.8-0.1-5.6-0.6-8.4-0.9c0.7-2.1,0.8-2,2.7-1.9c5.1,0.4,10.3,1,15.4,0.9c6.1-0.1,12.1-0.8,18.2-1.3
		c1.1-0.1,2.1-0.4,3.2-0.6c-0.5-1.5-1.2-2.8-1.5-4.2c-0.6-2.5-0.8-5.1-1.3-7.7c-0.8-4-1.7-7.9-2.8-11.8c-0.7-2.4-2.1-2.8-4.5-2.7
		c-5.3,0.3-10.7,0.3-16,0.4c-2.1,0-4.2,0-6.2-0.1c-3.3-0.2-6.6-0.3-9.9-0.7c-3.8-0.5-7.6-1.1-11.4-1.9c-2-0.4-4-1.4-6.3-2.2
		c-0.1,1.5-0.4,3-0.4,4.5c-0.1,4.6-0.1,9.2,0,13.8c0.1,2.7,0.6,5.3,1,7.9c0.2,1.4,1,2,2.4,2.1c1.1,0,2.1,0.3,3.1,0.5
		c0,0.3,0.1,0.4,0.1,0.5c-1.1,2.3-1.1,2.4-3.6,1.7c-1.5-0.4-1.8,0.1-1.7,1.4c0.1,0.8,0.2,1.6,0.3,2.3c0.2,1.3,0.2,2.5-1.5,3.6
		c-0.5-4.4-1.2-8.6-1.5-12.8c-0.3-4.7-0.4-9.4-0.3-14c0-3.7,0.3-7.4,0.5-11.1c0.1-1.6-0.1-3.1,0.1-4.7c0.1-1.3,0.4-2.7,1-3.8
		c1.5-2.7,3.8-4.5,6.7-5.3c1.1-0.3,2.3,0.1,3.5,0c0.5,0,1.2-0.2,1.4-0.5c2.1-3.7,9.7-5.6,13.1-2.9c1,0.8,1.7,0.7,2.6-0.3
		c2.4-2.6,5.3-4.8,8.7-5.8c4.3-1.3,8.5-0.2,12.4,2c1.8,1.1,3.5,2.5,5.4,3.8c0.1-0.1,0.6-0.5,1.1-0.9c3.5-2.6,8.3-2.9,12.1-0.5
		c1.2,0.7,2.1,0.8,3.3,0.2c2.7-1.5,5.6-1,8.4-0.4c1.5,0.3,3.1,0.7,4.5,1.3c5.1,2.2,8.4,8.9,6.3,14.4c-0.7,1.9-0.5,3.2,0,4.9
		c0.5,1.6,0.6,3.3,0.5,5c-0.3,3.6-0.7,7.3-1.2,10.9c-0.4,3-1.3,5.9-1.5,8.9c-0.2,3.1-1.7,5.9-2,9c-0.3,3.1-1.2,6.1-1.8,9.2
		c-0.6,3.1-1.3,6.2-1.9,9.3c-0.9,4.4-2,8.8-2.5,13.3c-0.6,6-0.9,12.1-0.9,18.2c0,8.5,0.3,17,0.6,25.5c0.2,5.4,0.7,10.8,1,16.1
		c0.2,3.7,0.4,7.4,0.6,11.1c0,0.3,0,0.6,0.1,0.9c1.6,3.3-1.1,4.6-3.1,6c-7.5,5.2-16.1,7.9-25.1,8.7c-7.4,0.6-15,0.7-22.3-1.2
		c-4.5-1.1-8.8-2.7-12.5-5.5c-0.6-0.5-1-1.6-1-2.4c0.1-3.6,0.5-7.2,0.7-10.8c0.1-1.1,0-2.2,0-3.4c-0.5,0.1-0.8,0.2-1.3,0.3
		c0-0.9,0-1.7,0-2.5c0.4-7.6,0-15.2-1-22.8C438,495.6,438,494.2,437.9,492.8L437.9,492.8z M427.1,389.6c0,0.1,0,0.2,0,0.4
		c0.4,0.1,0.8,0.2,1.3,0.3c1.8,0.5,3.5,1.1,5.3,1.5c4.5,1,8.9,2.4,13.5,2.8c5.1,0.5,10.4,0.1,15.5,0.5c3.4,0.3,6.7-0.4,10-0.7
		c3.5-0.4,5.7,0.9,6.9,4.3c0.9,2.6,1.5,5.3,2.1,8c0.6,2.9,0.9,6,1.4,8.9c0.7,4.5,3.1,8,6.7,10.6c3.6,2.6,12.6,0.8,13.6-6.8
		c0.6-4.5,1.4-9,0.7-13.6c-0.5-3.1-1-6.2-1.7-9.3c-0.4-1.7-0.4-2.1,1.4-2.3c2.2-0.3,3.6-1.6,4.6-3.4c0.2-0.3,0.4-0.6,0.7-0.9
		c1.5-1.5,2.4-3.1,2-5.4c-0.5-2.8-2.3-4.8-4.1-6.7c-3.2-3.2-9-5.2-13.3-2.5c-1,0.6-2.1,0.6-3.1,0c-2.4-1.4-5.1-1.6-7.8-1.7
		c-2.3,0-4,1.3-5.5,3c-0.3,0.3-0.8,0.7-1.1,0.7c-0.4-0.1-0.8-0.6-1-1c-0.4-0.5-0.5-1.2-1-1.5c-3.4-2.5-7.3-3.9-11.4-4.6
		c-0.6-0.1-1.3-0.1-1.9,0c-4.3,1.2-8.2,3-10.4,7.2c-0.5,0.9-1,0.8-1.6,0.1c-0.5-0.6-1.1-1.2-1.7-1.5c-4.6-2.4-9.9-0.2-12,4.8
		c-0.1,0.3-0.5,0.6-0.8,0.7c-0.1,0-0.6-0.4-0.6-0.6c-0.1-1.3-1.2-1.4-2-1.3c-3.6,0.3-8.3,3.7-8.1,8.2c0.1,1.5,0.5,1.8,1.8,1.7
		c-0.5-2.6,0.7-5.6,3-6.6c1-0.4,2.2-0.4,3.3-0.4c0.3,0,0.6,0.7,0.8,1c-0.3,0.2-0.7,0.5-1,0.4c-2.6-0.6-3.6,1.3-4.7,3
		c-0.4,0.7-0.2,1.2,0.7,1.3c0.4,0,0.7,0.3,1.1,0.5c-0.3,0.3-0.6,0.6-0.9,0.8C427.6,389.4,427.3,389.5,427.1,389.6 M509.8,392.2
		c-0.7,0.6-1.3,1.2-1.9,1.7c-0.7,0.6-1.5,1.4-2.3,1.5c-1.7,0.3-1.6,1.1-1.4,2.5c0.6,3.7,1.2,7.4,1.4,11.1c0.2,2.8-0.2,5.6-0.3,8.4
		c0,0.6-0.5,1.7,0.8,1.7c1.1,0,2.5,0.1,2.9-1.3c0.5-1.8,0.9-3.7,1-5.6c0.4-5.1,0.8-10.2,1-15.4C511,395.4,511.3,393.7,509.8,392.2"
		/>
	<path class="st0" d="M495.1,498c0-2.8,0-5.5,0-8.3c0-4.4-0.2-8.7-0.1-13.1c0.1-4.8,0.5-9.6,0.8-14.5c0.2-2.5,0.2-4.9,0.7-7.3
		c0.8-4.3,1.9-8.5,3-12.7c1.2-4.6,2.4-9.3,3.6-13.9c0.1-0.6,0-1.2,0.2-1.8c0.1-0.5,0.4-1.1,0.7-1.2c0.4-0.1,1,0.3,1.3,0.6
		c0.8,1,0.8,2.1,0.5,3.4c-1.1,4.9-2.2,9.7-3.3,14.6c-0.9,4-2,8-2.7,12.1c-0.8,4.7-1.3,9.5-1.6,14.3c-0.3,4.1-0.1,8.3-0.1,12.4
		c0,4.3,0,8.7,0,13c0,1.2,0.3,2.5,0.3,3.7c0,0.7-0.2,1.5-0.6,2.1c-0.2,0.4-0.9,0.7-1.3,0.6c-0.4-0.1-0.8-0.7-0.9-1.1
		c-0.2-1-0.2-2-0.2-3C495.2,498,495.2,498,495.1,498"/>
	<path class="st0" d="M500.4,430.7c-0.9,3.6-1.9,6.9-2.7,10.2c-1.2,5.1-2.7,10.1-3.4,15.3c-0.7,4.9-0.7,10-0.9,15
		c-0.1,4.1-0.1,8.2-0.1,12.3c0.1,4.5,0.3,9.1,0.5,13.6c0.1,1.1,0.5,2.1,0.6,3.2c0,0.6-0.4,1.2-0.6,1.8c-0.5-0.3-1.3-0.5-1.5-1
		c-0.4-0.9-0.6-1.9-0.7-2.8c-0.5-5-1.1-10-1.4-15c-0.2-2.8,0.2-5.6,0.3-8.4c0.1-3.5,0-7.1,0.2-10.6c0.2-3.6,0.7-7.3,1-10.9
		c0.2-2.2,0.4-4.3,0.7-6.5c0.5-2.6,1.2-5.2,1.8-7.7c0.7-2.8,1.4-5.6,2.1-8.3c0.2-1,1.7-2.1,2.7-1.7
		C499.8,429.2,500,430.1,500.4,430.7"/>
	<path class="st0" d="M487.6,482.6c0.9-8.1-0.7-16.4,1.8-24.3c0.2,0,0.3,0,0.5,0c0,0.3,0.2,0.7,0.1,1c-1.2,5.3-0.7,10.7-1,16.1
		c-0.3,6.3,0.7,12.4,1.1,18.6c0.1,2.3,0.3,4.7,0.3,7c0,1-0.6,2-0.5,2.9c0.4,4.3,0.9,8.5,1.3,12.8c0.4,4.2,0.7,8.4,1,12.7
		c0,0.4,0.4,0.7,0.3,1.1c0,0.4-0.3,0.9-0.5,1.3c-0.4-0.3-0.9-0.4-1-0.8c-0.2-0.6-0.2-1.4-0.3-2c-0.8-7.4-1.5-14.7-2.3-22.1
		c-0.5-5.2-1.1-10.3-1.6-15.5c-0.4-4.3-0.9-8.5-1.1-12.8c-0.1-4.3,0-8.6,0.2-12.9c0.2-7.4,2.5-14.4,3.6-21.6c0.4-2.5,0.3-5,0.4-7.5
		c0-1.1-0.1-2.2-0.1-3.3c0-0.3,0.2-0.7,0.3-1c0.3,0.2,0.9,0.3,1,0.5c0.3,1.1,0.6,2.2,0.6,3.3c-0.1,2.7-0.1,5.4-0.5,8.1
		c-0.6,3.7-1.6,7.3-2.3,11c-0.6,3.3-1.1,6.5-1.3,9.8c-0.3,4.3-0.3,8.7-0.3,13.1C487.1,479.5,487.4,481.1,487.6,482.6 M488,484.1
		c-0.1,0-0.3,0-0.4,0c0.4,4.2,0.7,8.4,1.1,12.6c0.2,0,0.4,0,0.6-0.1C488.8,492.5,488.4,488.3,488,484.1"/>
	<path class="st0" d="M488.4,438.4c-0.6,2.9-1.4,5.7-1.9,8.6c-0.7,4.1-1.5,8.3-1.8,12.5c-0.4,4.8-0.3,9.6-0.5,14.5
		c-0.1,2.1-0.3,4.1-0.2,6.2c0.1,3.2,0.5,6.5,0.8,9.7c0.4,4.9,0.6,9.8,1,14.6c0.5,6.1,1,12.3,1.6,18.5c0.3,3.2,0.7,6.4,1,9.5
		c0,0.4-0.4,0.8-0.6,1.2c-0.3-0.3-0.8-0.7-0.8-1c-0.3-2.4-0.6-4.9-0.8-7.3c-0.4-4.6-0.7-9.3-1.1-13.9c-0.4-4.1-0.8-8.2-1.2-12.2
		c-0.3-3.3-0.4-6.7-0.9-10c-0.6-4.8-0.8-9.6-0.5-14.5c0.4-5.4,0.1-10.8,0.7-16.2c0.6-5.4,1.9-10.7,2.8-16c0.6-3.7,0.6-7.5-0.4-11.2
		c-0.2-0.6-0.4-1.2-0.4-1.7c0-0.5,0.3-0.9,0.4-1.4c0.4,0.4,1.1,0.7,1.2,1.1c0.4,2.1,0.8,4.2,1.1,6.4c0.1,0.9,0.1,1.8,0.1,2.7
		C488.1,438.4,488.3,438.4,488.4,438.4"/>
	<path class="st0" d="M438,492.8c-0.3-1-0.7-2-0.9-3c-1.2-6.1-2.4-12.3-3.6-18.5c-0.8-3.8-1.8-7.5-2.5-11.3
		c-0.2-0.8,0.2-1.7,0.3-2.5c0.2,0,0.4,0,0.6,0c0.4,1.4,0.8,2.8,1.2,4.2c1,4.5,2.1,9,3,13.6c1,4.8,1.9,9.6,2.8,14.4
		c0.1,0.6-0.3,1.3-0.5,2C438.1,492.1,438,492.5,438,492.8L438,492.8z"/>
	<path class="st0" d="M466,434.9c0.4,4.5,0.9,9,1.3,13.5c0.4,4.1,0.6,8.3,1,12.4c0.2,2.6,0.5,5.2,0.6,7.8c0,0.5-0.5,1-0.7,1.5
		c-0.2-0.5-0.5-1-0.5-1.5c-0.1-1.2-0.1-2.4-0.2-3.6c-0.6-6.5-1.3-13.1-1.8-19.6c-0.3-4-0.5-8-0.8-12c0-0.3-0.1-0.7-0.1-1
		c0.1-0.4,0.4-0.8,0.6-1.3c0.3,0.4,0.8,0.8,0.9,1.3c0.1,0.8,0,1.6-0.1,2.4C466.1,434.9,466,434.9,466,434.9"/>
	<path class="st0" d="M481.5,462.3c0.1,0.3,0.2,0.5,0.2,0.8c-1.2,4.8-0.7,9.7-0.4,14.6c0.4,5.9,1,11.8,1.4,17.7
		c0.3,3.4,0.5,6.8,0.7,10.2c0,0.4-0.2,0.7-0.3,1.1c-0.2,0-0.3,0-0.5,0c-0.2-1.8-0.5-3.6-0.7-5.5c-0.6-7.1-1.2-14.3-1.6-21.5
		c-0.3-4.7-0.2-9.4-0.2-14.1c0-1.2,0.4-2.3,0.7-3.5C481.1,462.3,481.3,462.3,481.5,462.3"/>
	<path class="st0" d="M446.1,496.5c-3.3-15.2-6.7-30.2-10-45.2C437.5,452.5,446.7,495.3,446.1,496.5"/>
	<path class="st0" d="M441,489.1c-3.2-11.4-5-23-7.3-34.6c0.2,0,0.5-0.1,0.7-0.1c0.8,3.6,1.6,7.3,2.4,10.9
		c1.4,6.4,2.8,12.7,4.1,19.1c0.3,1.2,0.6,2.3,0.9,3.5c0.1,0.4-0.2,0.9-0.3,1.3C441.3,489.1,441.1,489.1,441,489.1"/>
	<path class="st0" d="M476.9,475.6c0.1,1.2,0.3,2.4,0.4,3.5c0.2,3.7,0.2,7.5,0.5,11.2c0.3,4.5,0.9,9,1.3,13.5c0.2,1.7,0.3,3.3,0.4,5
		c0,0.3-0.2,0.6-0.4,0.9c-0.2-0.3-0.6-0.5-0.6-0.8c-0.4-4.7-0.8-9.3-1.1-14c-0.4-6-0.8-12-1.1-18c0-0.5,0.1-0.9,0.1-1.4
		C476.5,475.6,476.7,475.6,476.9,475.6"/>
	<path class="st0" d="M494.7,534.9c-1.5-10.4-0.6-20.9-1.9-31.4c0.2-0.1,0.4-0.1,0.5-0.2c0.2,0.6,0.5,1.2,0.6,1.8
		c0.2,4.5,0.3,9,0.5,13.5c0.2,4.6,0.6,9.3,1,13.9c0,0.8,0,1.5,0,2.3C495.1,534.8,494.9,534.9,494.7,534.9"/>
	<path class="st0" d="M498.1,532c-0.7-9.7-1.4-19.1-2-28.6c0-0.1,0.4-0.2,0.9-0.6c1.1,9.6,1.1,19.1,1.7,28.5
		C498.7,531.5,498.4,531.7,498.1,532"/>
	<path class="st0" d="M458.7,464.5c-0.3-0.2-0.5-0.4-0.7-0.5l-1.4-33.6c0.1,0,0.2-0.1,0.3-0.1c0.2,0.5,0.6,0.9,0.6,1.4
		c0.2,2.1,0.4,4.1,0.5,6.2c0.1,3.3,0.1,6.6,0.2,9.9c0.2,5.2,0.4,10.4,0.6,15.5C458.8,463.7,458.7,464,458.7,464.5"/>
	<path class="st0" d="M476,452.4c-0.1-0.3-0.3-0.6-0.3-0.9c-0.1-2.6-0.3-5.1-0.3-7.7c0.1-4.2,0.3-8.5,0.5-12.7
		c0-0.7-0.2-1.5-0.2-2.2c0-0.3,0.2-0.6,0.3-0.9c0.2,0.2,0.7,0.5,0.7,0.7c0.1,1.7,0.3,3.5,0.2,5.2c-0.1,5.4-0.2,10.8-0.3,16.3
		c0,0.7-0.1,1.5-0.1,2.2C476.3,452.4,476.1,452.4,476,452.4"/>
	<path class="st0" d="M461.1,432.3c1,8,2.1,16,3.1,24c-0.1,0.1-0.2,0.1-0.4,0.2c-0.2-0.4-0.5-0.7-0.6-1.1c-0.8-6.3-1.6-12.6-2.3-19
		c-0.1-1-0.4-2-0.5-3.1c0-0.3,0-0.7,0.1-1C460.7,432.3,460.9,432.3,461.1,432.3"/>
	<path class="st0" d="M462.2,542.8v-24.5C463.1,519.3,463.1,541.4,462.2,542.8"/>
	<path class="st0" d="M469.7,432.1c0.6,6.8,1.2,13.6,1.9,20.6c-0.4-0.7-0.9-1.3-1-2c-0.6-6-1-12-1.5-18c0-0.2,0.1-0.3,0.2-0.5
		C469.4,432.1,469.5,432.1,469.7,432.1"/>
	<path class="st0" d="M467.8,510.8c0.3-8.4,0.5-16.4,0.7-24.6C469.5,487.3,468.9,508.9,467.8,510.8"/>
	<path class="st0" d="M479.7,522.6c0.3,6.4,0.3,12.8-0.1,19.2H479v-19.2H479.7z"/>
	<path class="st0" d="M452.1,539.4V520h0.6v19.4C452.5,539.4,452.3,539.4,452.1,539.4"/>
	<path class="st0" d="M470.7,521.5v19.8c-0.1,0.1-0.1,0.1-0.2,0.1c-0.2-0.4-0.5-0.8-0.5-1.2c-0.1-2.8-0.1-5.5-0.1-8.3
		c0-3.1,0.1-6.1,0.2-9.2c0-0.5,0.2-1,0.3-1.5C470.5,521.4,470.6,521.5,470.7,521.5"/>
	<path class="st0" d="M473.3,488c0.5,7.1,0.6,14.3-0.5,21.4V488H473.3z"/>
	<path class="st0" d="M483.1,540.6c-0.1-0.6-0.3-1.3-0.3-1.9c0-4.1,0-8.1,0-12.2c0-0.5-0.1-1.1-0.1-1.6c0-0.2,0.2-0.5,0.4-0.7
		c0.2,0.2,0.6,0.4,0.6,0.7c0.1,2,0.1,3.9,0.1,5.9c0,3,0,5.9,0,8.9c0,0.3-0.1,0.6-0.2,0.9C483.4,540.6,483.3,540.6,483.1,540.6"/>
	<path class="st0" d="M476.4,473.5c-0.9-5.1-1.5-10.2-0.5-15.4c0.1,0,0.3-0.1,0.4-0.1c0.1,0.3,0.3,0.5,0.3,0.8
		c0.1,4.1,0.2,8.2,0.3,12.2c0,0.8,0,1.6,0,2.4H476.4z"/>
	<path class="st0" d="M455.5,489.4c-0.2,7.3-0.5,14.5-0.7,21.8c-0.2,0-0.4,0-0.6,0c0.3-7.2,0.7-14.5,1-21.7
		C455.2,489.4,455.3,489.4,455.5,489.4"/>
	<path class="st0" d="M456.3,524.6c0.5,5.7-0.1,11.4,0.2,17.1c-0.2,0-0.4,0.1-0.5,0.1c-0.1-0.6-0.3-1.2-0.3-1.8
		c0-4.2,0.1-8.4,0.1-12.6c0-0.9-0.1-1.9-0.2-2.8C455.9,524.6,456.1,524.6,456.3,524.6"/>
	<path class="st0" d="M474.8,542.5c-0.2-0.4-0.5-0.7-0.4-1.1c0.2-4.4,0.5-8.8,0.7-13.1c0-0.3,0.2-0.7,0.3-1c0.2,0,0.4,0.1,0.6,0.1
		c-0.2,5-0.5,10-0.7,15C475.1,542.5,475,542.5,474.8,542.5"/>
	<path class="st0" d="M433.2,399.4v15.4C432.2,412.1,432.1,400.6,433.2,399.4"/>
	<path class="st0" d="M458.6,489.4v22c-0.3,0-0.5,0-0.8,0c0.3-7.3,0.7-14.6,1-21.9C458.8,489.4,458.7,489.4,458.6,489.4"/>
	<path class="st0" d="M466.4,541.3v-14.2c0.2,0,0.3,0,0.5,0v14.2C466.7,541.3,466.6,541.3,466.4,541.3"/>
	<path class="st0" d="M459.9,526.9c0.2,4.6,0.3,9,0.5,13.4C459.3,539,459,527.7,459.9,526.9"/>
	<path class="st0" d="M428.2,396.1c-1.3,4-0.3,8.1-0.4,12.5C426.3,406.3,426.6,397.5,428.2,396.1"/>
	<path class="st0" d="M473.4,407.1c0.3,3.5,0.6,7.1,1,10.6C473.3,416.5,472.5,408.3,473.4,407.1"/>
	<path class="st0" d="M463,496.5v14.3c-0.1,0-0.2,0-0.4,0v-14.3C462.8,496.5,462.9,496.5,463,496.5"/>
	<path class="st0" d="M480.2,457.9c0.6-3,1.3-5.9,2-9.1C483,450.7,481.4,457.5,480.2,457.9"/>
	<path class="st0" d="M450.7,498.7c0.7,4.7,0.3,11-0.7,11.6C450.2,506.4,450.5,502.5,450.7,498.7"/>
	<path class="st0" d="M453.1,416.2c-0.2-0.3-0.5-0.5-0.5-0.7c-0.2-3.5-0.4-7.1-0.5-10.6c0-0.2,0-0.3,0-0.4c0.1-0.5,0.1-1,0.2-1.4
		c0.2,0.5,0.5,1,0.6,1.6c0.2,3.6,0.3,7.3,0.5,10.9C453.4,415.6,453.3,415.8,453.1,416.2"/>
	<path class="st0" d="M469.4,401.2c0.2,3.5,0.5,6.7,0.7,10.1C469.1,410.1,468.5,402.8,469.4,401.2"/>
	<path class="st0" d="M438.8,446.2c0.4,1.9,0.8,3.7,1.2,5.8C438.8,451.2,438.1,448.1,438.8,446.2"/>
	<path class="st0" d="M462.2,495v-6.7c0.1,0,0.2,0,0.2,0v6.7C462.4,495,462.3,495,462.2,495"/>
	<path class="st0" d="M492.6,430.2c1.3,1,1.4,2.7,0.4,4.1C492.9,433.1,492.8,431.8,492.6,430.2"/>
	<path class="st0" d="M442,490.2c0.3,0.9,0.5,1.6,0.7,2.4c0,0.2-0.2,0.5-0.4,0.8c-0.3-0.2-0.8-0.4-0.8-0.5
		C441.5,492,440.5,491,442,490.2"/>
	<path class="st0" d="M488,538.5c-0.1-1.1-0.2-2.2-0.3-3.3c0.3,0,0.6,0,0.9-0.1c0.1,1.1,0.1,2.2,0.2,3.3
		C488.5,538.5,488.3,538.5,488,538.5"/>
	<path class="st0" d="M491.3,533.7c1.4,1,1.5,2.6,0.6,4.1C491.7,536.4,491.5,535.2,491.3,533.7"/>
	<path class="st0" d="M471,413.4c0.1,1.3,0.2,2.5,0.3,3.8c-0.2,0-0.3,0-0.5,0.1c-0.2-1.3-0.4-2.5-0.6-3.8
		C470.5,413.4,470.7,413.4,471,413.4"/>
	<path class="st0" d="M472.1,460.1c-0.2-1.1-0.4-2.2-0.6-3.4c0.3,0,0.5-0.1,0.8-0.1c0.2,1.1,0.4,2.3,0.5,3.4
		C472.6,460,472.4,460.1,472.1,460.1"/>
	<path class="st0" d="M488,484.1c0.4,4.2,0.8,8.4,1.2,12.6c-0.2,0-0.4,0-0.6,0.1c-0.4-4.2-0.7-8.4-1.1-12.6
		C487.7,484.1,487.9,484.1,488,484.1"/>
	<path class="st0" d="M484.6,374.6c4.9,0.5,8.2,2.7,10.4,6.6c0.2,0.3-0.1,0.8-0.1,1.2c-0.4-0.2-0.9-0.2-1.2-0.5
		c-1.2-1.2-2.4-2.6-3.6-3.8c-1.4-1.4-3.3-1.9-5.3-2c-0.4,0-0.8-0.4-1.2-0.7C484.1,375.2,484.4,374.8,484.6,374.6"/>
	<path class="st0" d="M493.8,425.2c-0.6-0.2-1.5-0.4-2.4-0.7c-0.3-0.1-0.4-0.7-0.6-1c0.3-0.1,0.8-0.5,1-0.4c2.7,1.1,4.8,0,6.9-1.6
		c0.3-0.2,0.8-0.1,1.2-0.1c0,0.4,0.1,1.1-0.2,1.3C498.2,424.1,496.4,425,493.8,425.2"/>
	<path class="st0" d="M462.2,373.6c-2.1,0.2-4.3-0.1-6.1,0.7c-1.7,0.8-2.9,2.7-4.5,4c0.7-1.7,1.6-3.3,3.3-4.4
		C457,372.6,460.7,372.4,462.2,373.6"/>
	<path class="st0" d="M506.9,382.4c1.2,0.8,1.6,2.7,0.9,3.8c-0.6,0.9-1.2,1.9-2,2.7c-0.2,0.3-0.8,0.2-1.2,0.3c0-0.4,0-0.9,0.1-1.1
		c0.4-0.5,1.1-0.8,1.3-1.4c0.4-0.9,0.4-1.9,0.6-2.9C506.8,383.4,506.8,383,506.9,382.4"/>
	<path class="st0" d="M482.8,395.3c0.6-0.5,0.8-0.7,1.1-0.9c1.5-0.9,2.1-2.2,1.9-4c-0.1-0.7,0.4-1.5,0.7-2.3
		c0.9,0.6,0.8,1.7-0.2,4.7C485.9,394.2,484.5,395.4,482.8,395.3"/>
	<path class="st0" d="M448.4,380.9c-1.8-1.6-3.5-3.3-6.3-3.1c0-0.2,0-0.4,0-0.6c0.5-0.1,1.1-0.3,1.6-0.2
		C445.9,377.4,447.5,378.8,448.4,380.9"/>
	<path class="st0" d="M486.2,417.1c-1.1-0.7-2-3.2-1.6-4.1c0.1-0.2,0.4-0.5,0.7-0.5c0.2,0,0.6,0.3,0.6,0.4
		C486,414.3,486.1,415.7,486.2,417.1"/>
	<path class="st0" d="M509.5,383.9c1.2,0.9,0.5,3.8-1.3,4.7C508.7,387,509.1,385.4,509.5,383.9"/>
	<path class="st0" d="M432.8,387.1c-0.9,0.6-1.8,1.1-2.6,1.7c-0.1-0.1-0.3-0.2-0.4-0.3c0.3-0.5,0.4-1.2,0.9-1.5
		c0.6-0.3,1.4-0.3,2.1-0.5C432.8,386.7,432.8,386.9,432.8,387.1"/>
	<path class="st0" d="M461.3,377c-1.3-0.1-2.3-0.1-3.3-0.2c-0.2,0-0.4-0.3-0.7-0.4c0.2-0.2,0.4-0.7,0.5-0.7
		C459.1,375.7,460.4,375.7,461.3,377"/>
	<path class="st0" d="M507.2,396.4c1.9,1.1,2,14.3,0.4,17.1c-0.2-0.3-0.5-0.5-0.4-0.7C508.3,407.4,507.8,402,507.2,396.4"/>
	<path class="st0" d="M443.3,411.2c0.3-0.8,0.5-1.5,0.7-2.2c0.1,0,0.2,0.1,0.4,0.1c-0.2,1.1-0.4,2.2-0.5,3.3
		c-1.3-1.1-1.6-3.9-0.3-5.8C443.9,408.2,442.4,409.6,443.3,411.2"/>
	<path class="st0" d="M436.5,414.8c0.8-2.9,1.4-3.5,3.9-4c0.5-2.1,0.8-4,1.5-5.7c0.8-1.9,3.7-3,5.7-2.4c2.3,0.7,3.8,2.9,3.6,5.2
		c-0.3,2.6-1.4,4.7-4,5.7c-1.2,0.4-1.8,1.1-2.1,2.5c-0.3,1.5-1.5,2.9-2.5,4.1c0,0.1,0,0.2,0,0.3c0.2,0.8,0.5,1.5,0.7,2.3
		c-0.8,0.1-1.8,0.5-2.4,0.1c-1.8-1.1-3.1-0.7-4.4,0.7c-2.3,2.6-4.5,5.1-7,7.9c2,0.1,3.6,0.2,5.2,0.4c1.1,0.1,2.1,0.4,3.1,0.8
		c2.2,0.9,2.9,2.2,2,4.4c-0.8,2-1.9,4-3.2,5.8c-2.6,3.6-5.3,7.1-8.2,10.5c-2.1,2.5-4.3,5-6.6,7.3c-4.5,4.4-9.2,8.5-13.7,12.9
		c-3,3-5.8,6.3-8.6,9.5c-5.4,6-6.6,13.2-6.2,20.9c0.3,6.1,0.5,12.2,0.8,18.2c0.1,2.6,0.5,5.1,0.9,7.7c0.1,0.7,0.7,1.6,1.3,2
		c6.7,4.6,14.1,7.9,21.9,10.1c1.4,0.4,3,0.3,4.5,0.3c1,0,1.8,1.2,1.2,2.1c-0.6,0.9-1.4,1.8-2.3,2.2c-4.4,2.1-8.9,4-13.4,5.9
		c-4.9,2-10,2.6-15.3,2.7c-5.3,0.1-10.6-0.1-15.8-1.1c-5.2-1-10.1-2.7-14.8-5.3c-0.7-0.4-1.7-1.4-1.6-1.8c0.3-0.8,1.1-1.8,1.9-2.1
		c3.8-1.5,7.7-2.6,11.4-4.3c3.4-1.6,6.7-3.6,9.9-5.6c2.4-1.5,2.4-4.3,2.5-6.8c0.4-7.9-0.6-15.7-1.1-23.6c-0.1-2.2-0.3-4.4-0.4-6.6
		c-0.2-4.2-2.1-7.8-4.5-11.2c-2.8-3.9-5.6-7.8-8.7-11.5c-2.7-3.2-5.9-5.9-8.8-8.9c-6.3-6.2-13.1-11.7-20.1-17c-3-2.3-5.1-5-6.1-8.6
		c-0.3-1,0.5-1.9,1.6-2.1c2.4-0.6,4.8-1.4,7.2-1.5c6-0.2,12,0.2,18,0c8-0.3,15.9-0.9,23.9-1.5c5.7-0.4,11.5-1.1,17.2-1.6
		c5.3-0.4,10.6-0.8,15.9-1.1c1.9-0.1,3.2-1.1,4.4-2.3c3.2-3.3,6.3-6.6,9.6-9.9c0.8-0.8,1.1-1.5,0.1-2.4c-0.3-0.2-0.5-0.6-0.5-0.9
		c-0.1-0.8-0.4-1.7-0.1-2.3c0.2-0.3,1.3-0.2,2.1-0.2C436.2,414.7,436.4,414.8,436.5,414.8 M412.7,460.8c0-0.1,0.1-0.2,0.1-0.3
		c0.4-0.1,0.8-0.2,1.2-0.2c1.7,0,1.9-0.2,2-2.3h-18.3c0.1,3.9,4.1,5.6,8.5,6.7c3,0.8,7.4-1.3,8.5-3.5
		C414,461,413.3,460.9,412.7,460.8 M357.1,459.3L357.1,459.3c0.6,0.5,1.2,1.6,1.9,1.6c2.3,0.2,4.7,0.1,7,0.1c0,0.1,0,0.2,0,0.4h-6.3
		c0,0.3,0,0.3,0,0.3c5.9,5.7,12.1,11.1,16.8,17.8c0.3,0.5,1.2,0.8,1.9,0.8c1.2,0.1,2.4,0,3.6,0c0,0.1,0,0.1,0,0.2
		c-1.2,0.2-2.5,0.3-3.8,0.5c1.6,2.1,3.9,0.5,5.6,1.4c-1.2,0.1-2.5,0.2-3.8,0.3c3.5,4.2,3.7,6.3,13.7,5.4c-2.2,0.2-4.5,0.5-6.7,0.7
		c0,0.1,0,0.3,0,0.4c1.8,0.1,3.5,0.2,5.3,0.4c-0.9,1.6-2.4,1.3-3.8,1.3c-1.5,0-2.9-0.3-4.6-0.5c2.3,3.9,2.1,8.1,2.5,12.1
		c0.4,4.6,0.6,9.2,0.9,13.9c0.3,5,0.6,10-0.2,14.9c-0.3,1.7-0.8,3.3-2.4,4.3c-6.3,4.2-13.2,7.1-20.5,9.2c-1,0.3-2,0.6-2.4,1.7
		c0.1,0.1,0.2,0.3,0.3,0.4c0.7-0.3,1.4-0.7,2.2-1.1c0,0.6,0.1,1.2,0.1,1.9c0.1,0,0.2,0,0.3,0c0.1-0.4,0.2-0.7,0.3-1.2
		c1.2,0.7-0.1,2.9,2,2.8c-0.1-0.6-0.2-1.1-0.4-1.7c0.1,0,0.2-0.1,0.3-0.1c0.5,1,1.1,1.9,1.6,2.9c0.2-0.1,0.3-0.2,0.4-0.2
		c-0.3-1-0.5-1.9-0.8-2.9c0.2-0.1,0.3-0.1,0.5-0.1c0.2,0.7,0.4,1.4,0.7,2.1c0.3,0.6,0.8,1.1,1.2,1.7c0.1-0.1,0.2-0.2,0.3-0.3
		c-0.3-0.8-0.5-1.7-0.8-2.5c0.2,0,0.4-0.1,0.5-0.1c0.2,0.7,0.4,1.3,0.7,1.9c0.3,0.6,0.8,1.1,1.2,1.6c0.1-0.1,0.2-0.2,0.3-0.3
		c-0.3-0.7-0.6-1.4-0.9-2.2c0.1-0.1,0.3-0.1,0.4-0.2c0.3,0.6,0.6,1.1,1,1.6c0.4,0.6,0.9,1.3,1.4,1.5c1.9,0.6,3.9,0.9,6.2,1.4
		c-0.8-1.2-1.3-2.1-1.9-2.9c0.2-0.1,0.3-0.2,0.5-0.3c0.4,0.7,0.8,1.5,1.3,2.2c0.5,0.6,1.2,0.9,1.9,1.4c0.1-0.1,0.2-0.2,0.3-0.4
		c-0.6-0.9-1.2-1.8-1.8-2.7c0.2-0.1,0.4-0.3,0.5-0.4c0.5,0.8,0.9,1.5,1.4,2.3c0.6,1,1.5,1.2,2.7,1c-0.7-1-1.3-1.9-1.8-2.8
		c0.2-0.1,0.3-0.2,0.4-0.3c0.2,0.3,0.4,0.5,0.6,0.8c0.7,1.2,1.2,2.6,2.8,2.6c1.3,0.1,2.6-0.2,3.9-0.3c-0.8-0.9-1.5-1.7-2.2-2.5
		c0.1-0.1,0.3-0.3,0.4-0.4c1.3,1.3,2.1,3.5,4.5,3c0.1-0.2,0.3-0.3,0.4-0.5c-0.9-0.7-1.9-1.5-2.8-2.2c0.1-0.1,0.2-0.2,0.3-0.4
		c1.7,0.9,2.4,3.5,4.8,3c0.2-0.2,0.3-0.4,0.5-0.6c-0.9-0.7-1.8-1.4-2.7-2.1c0.1-0.1,0.2-0.2,0.3-0.3c0.7,0.7,1.5,1.4,2.2,2.1
		c0.9,0.8,1.8,1,3,0.4c-0.8-1.1-2.3-1.6-2.4-3.1c0.3,0,0.4,0.2,0.5,0.4c0.9,1.2,1.8,2.7,3.4,2.6c1.4-0.1,2.7-0.8,4.3-1.3
		c-0.7-0.5-1.2-0.8-1.6-1.1c-0.4-0.3-0.7-0.6-1-0.9c0.1-0.1,0.2-0.2,0.3-0.4c1.5,0.5,2.4,3.3,4.7,1.4c-0.8-0.7-1.5-1.3-2.3-2
		c0.1-0.1,0.2-0.2,0.3-0.3c0.5,0.4,0.9,0.7,1.4,1.1c1.4,1.2,2,1.1,3.6,0.1c1-0.7,2.3-1,3.4-1.5c1.6-0.7,3.2-1.3,4.8-2.2
		c1.1-0.6,1.9-1.5,2.9-2.3c-0.1-0.2-0.1-0.4-0.2-0.5c-0.6,0-1.2,0-1.8,0.1c-0.4,0-0.8,0.3-1.2,0.2c-1.6-0.5-3.3-1-4.9-1.7
		c-4.7-2-9.4-4-14-6.1c-1.3-0.6-2.5-2-3.8-1.9c-1.4,0-1.7-0.7-2.2-1.4c-1.2-1.4-1.1-3.1-1.2-4.8c-0.3-5-0.8-10-1.1-15.1
		c-0.2-3.6-0.3-7.2-0.4-10.7c-0.1-0.1-0.3-0.1-0.4-0.2c-1.3,1.4-2.7,2.8-4,4.3c1.1-1.7,2.4-3.3,3.7-4.8c0.5-0.6,0.7-1.3,1-2
		c-0.2-0.1-0.3-0.2-0.5-0.3c-1.1,1.1-2.2,2.2-3.3,3.3c-0.1-0.1-0.2-0.2-0.3-0.2c1-1.2,1.9-2.6,3.1-3.4c1-0.7,0.7-1.1,0.3-2.2
		c-1.1,1.2-2,2.3-2.8,3.3c0.6-2,2.1-3.4,3-3.7c1.1-3.1,1.7-6.4,3.2-9.1c1.8-3.1,4.2-5.9,6.7-8.5c5.8-5.9,11.9-11.6,17.8-17.3
		c1.2-1.2,2.4-2.5,3.8-3.9c-2.1,0.3-3.8,0.5-5.5,0.8c-0.3,0.1-0.7,0.5-0.9,0.9c-0.4,0.9-0.6,1.9-1.2,2.7c-2.9,3.6-6.8,4.7-11.2,3.7
		c-1-0.2-1.9-0.5-2.9-0.8c0.1,1.1,0.1,2.1,0.1,3.1c0,1,0,2-0.1,2.9c-0.2,2.9-3.1,5.4-6,5.4c-2,0-3.8-0.6-5.2-1.9
		c-2.2,1.5-4.3,3.1-6.5,4.4c-0.7,0.5-1.8,0.4-2.7,0.6c0.2-0.9,0.1-2.1,0.6-2.8c1.7-2.4,3.7-4.7,5.6-7.1c-2-3.7-0.6-7.7,0.2-11.7
		c-0.6-0.1-1.1-0.1-1.5-0.1c-4.9,0.1-9.8,0.2-14.6,0.2c-4.4,0-8.9-0.1-13.3-0.3c-1,0-2.1-0.5-3.1-0.7c0-0.2,0-0.4,0-0.6
		c0.6-0.3,1.1-0.7,1.7-0.8c3.5-0.4,6.9-1,10.4-1.1c6.5-0.1,13,0.1,19.4,0.1c1,0,2.3,0.2,3-0.3c1.7-1.4,3.5-1.7,5.5-1.5
		c0.4,0,1.2-0.4,1.3-0.7c0.5-1.7,1.9-2.4,3.1-3.3c2.6-1.9,5.5-1.9,8.4-1c1.1,0.3,1.5,0.2,2.2-0.5c2.2-2.6,4.5-5.3,6.7-7.9
		c1.3-1.5,2.7-3,4.1-4.5c-2.5-0.2-4.7-0.1-6.9,0.1c-4.3,0.4-8.5,0.9-12.8,1.3c-5.5,0.6-11.1,1-16.6,1.7c-9.7,1.2-19.5,1.1-29.3,1.4
		c-4.8,0.2-9.7,0.2-14.5,0.6c-3.3,0.3-3.4,0.8-2.2,3.8c1.2,0.1,2.3,0.1,3.5,0.2c0,0.1,0,0.2,0,0.3c-1,0-1.9,0.1-2.9,0.1
		c0,0.1,0,0.3,0,0.5c1.8,0.7,3.8,0.3,5.7,0.6c-1.5,0.1-3,0.3-4.4,0.4c1.6,1.5,3.5,0.8,5.7,1.1c-1.6,0.2-2.8,0.4-4.4,0.6
		c3,2.3,5.7,4.4,8.3,6.5c0.1,0.1,0.4,0.1,0.6,0.1c1.5-0.1,3.1-0.3,4.6-0.4c0,0.2,0,0.3,0,0.5c-1.4,0.1-2.8,0.3-4.4,0.4
		C353.3,456,355.2,457.7,357.1,459.3 M433.3,437.1c0-0.2,0-0.4,0-0.6c0.5,0,1,0.1,1.5,0.1c0.8,0.1,1.7,0.3,2.5,0.1
		c0.6-0.1,1-0.6,1.6-0.9c-0.3-0.5-0.6-1.2-1.1-1.6c-0.3-0.3-0.9-0.4-1.4-0.5c-2.7-0.2-5.3-0.3-8-0.4c-0.5,0-1.1,0.3-1.4,0.7
		c-2.6,2.6-5.2,5.1-7.7,7.8c-2.1,2.3-3.9,4.7-5.7,6.8c1.5,2.3,2.9,4.3,4.5,6.6c1.4,0,3.3-0.2,5.2,0.1c1.8,0.2,2.7-0.6,3.7-1.8
		c1.4-1.8,2.9-3.5,4.3-5.2c1.4-1.7,2.6-3.4,3.9-5.2c-0.1-0.1-0.2-0.2-0.3-0.3c-1.4,0.3-2.8,0.6-4.2,0.8c0-0.2-0.1-0.4-0.1-0.6
		c1.1-0.1,2.1-0.2,3.2-0.4c1.2-0.2,2.3-0.5,2.6-2c-1.7-0.1-3.3-0.2-5-0.3c0-0.2,0-0.3,0-0.5c2-0.5,4.4,1,6.1-0.7
		c0-0.2,0-0.3-0.1-0.5h-5c0-0.2,0-0.4,0-0.5c1,0.1,2,0.3,3.1,0.2c1-0.1,2.3,0.4,2.9-1.4H433.3z M393.5,474c2.9,1.3,3.6,1.2,4.8-0.2
		c-0.8-0.3-1.6-0.6-2.4-0.8c0-0.1,0.1-0.3,0.1-0.4c0.6,0.2,1.3,0.3,1.9,0.6c0.8,0.4,1.6,0.7,1.8-0.6c0.1-0.3,0.5-0.5,0.7-0.8
		c0.8-1.1,0.8-3.4-0.2-3.8c-1.2-0.5-2.5-1.1-3.8-0.1c-0.2,0.2-0.7-0.1-1.5-0.2c2.2-1.4,4-0.8,6.1,0c-0.4-1.6-0.3-3.6-1.1-4.1
		c-2.2-1.2-2.8-3.2-3.8-5.1c-0.2-0.4-0.7-0.9-1.1-0.9c-1.2-0.1-2.4,0-3.5-0.1c-1.1-0.1-1.8,0.4-2.1,1.4c-0.5,1.8-1.3,3.6-1.5,5.5
		c-0.4,3.7,1.4,6.6,4.1,9.2c0.8-3,3.8-4.4,5.4-4.4c0.6,0,1.3,0.4,1.9,0.7c-0.1,0.2-0.1,0.3-0.2,0.5c-0.8,0.2-1.6,0.4-2.8,0.7
		c0.9,0.5,1.4,0.7,2,1c-1,0-2.1-0.5-2.9-0.2C394.9,472,394.3,473.1,393.5,474 M443.7,413.9c1.1-0.5,2.2-1.1,3.3-1.5
		c2.4-0.7,3.5-4,2.9-6c-0.4-1.5-1.2-2.5-2.7-2.8c-1.4-0.3-2.7,0.1-3.8,1.2c-1.3,1.4-1.4,3.1-1.5,4.9c0,0.8-0.2,1.5-0.3,2.3
		c-1.7-0.3-3.2,0.4-3.6,1.6c-0.5,1.4,0.1,2.4,1.3,3.2c0.2-1,0.4-2,0.6-2.9c0.2,0,0.4,0.1,0.5,0.1c-0.2,0.8-0.6,1.6-0.5,2.4
		c0,0.8,0.5,1.5,0.8,2.2c0.2,0,0.3-0.1,0.5-0.1c0.2-0.7,0.5-1.4,0.7-2.2c0.1,0,0.2,0.1,0.3,0.1c-0.2,0.8-0.4,1.7-0.6,2.7
		C443.6,418,444.5,416,443.7,413.9 M415.8,455.2c-0.1-1.6-2-4.4-3-4.7c-0.2-0.1-0.6-0.1-0.7,0.1c-0.6,0.7-1.6,1.4-1.6,2.1
		c-0.1,1.4-0.9,1.4-1.7,1.3c-1.2-0.3-2.4-0.7-3.3-1.4c-0.4-0.3-0.3-1.4-0.4-2.1c0.6,0.1,1.2,0.2,2,0.3c0.1-0.1,0.4-0.4,0.7-0.8
		c0.3-0.3,0.5-0.7,0.8-1.1c-4.7-2.3-11.1,0.4-11.4,6.4h9.2H415.8z M425.3,431.9c1.8-0.1,3.1-0.7,4.2-1.9c1.8-2.3,3.8-4.4,5.8-6.6
		c0.6-0.7,1.4-1.3,2.1-2c-0.6,0-1.1,0.5-1.3,0.4c-1.5-0.7-1.2,0.6-1.5,1.2c-0.3,0.5-0.9,0.8-1.5,1.2c-0.2,0.2-0.6,0.1-0.8,0.3
		C429.9,427,427.6,429.4,425.3,431.9 M407.6,452.1c1.9-1.9,3.9-3.6,5.7-5.6c2.5-2.9,4.7-5.9,7.2-8.8c1.1-1.3,2.5-2.4,3.8-3.6
		C422.8,434,411,447,407.6,452.1 M390.1,472.9c-0.7-0.8-1.1-1.4-1.7-2c-2.1,2-4.1,4-5.4,6.5c0.1,0.2,0.3,0.3,0.4,0.5
		C385.6,476.2,387.8,474.6,390.1,472.9 M435.7,415.5c-0.1,0.2-0.3,0.3-0.4,0.5c1.7,2.6,3.6,5,6.8,5.9c0.1-0.1,0.2-0.2,0.3-0.3
		C440.2,419.5,437.9,417.5,435.7,415.5 M391.7,454.4c1.4-0.1,2.7-0.3,4.3-0.4C394.2,453.1,392.7,453.3,391.7,454.4"/>
	<path class="st0" d="M174.6,393c-4,5.4-19.9,26.9-70.4,26.9c-64.4,0-94.6-51.4-94.6-97.4c0-47.7,36.7-107.3,97.8-107.3
		c39.6,0,66.9,19.6,67.8,28.4c0.5,4.8,1.5,14.2,1.5,18.2c0,9.8-12.4,9.4-12.4,0c0-20.4-23.9-34.9-56.8-34.9
		c-32.3,0-73.3,36.3-73.3,95.6c0,56.9,33.9,87.5,70,87.5c45.9,0,63.3-19.1,64.3-20.3C172.2,385.7,176.7,390.2,174.6,393"/>
	<path class="st0" d="M133.5,265.5c-20,0-54.2,15-54.2,60.5c0,44,35.4,60.1,54.2,60.1c22.8,0,56.3-16.3,56.3-60.1
		C189.9,278.3,153.2,265.5,133.5,265.5 M133.5,377.1c-17.9,0-35.3-16.6-35.3-51.1c0-39.3,20.4-51.5,35.3-51.5
		c17.2,0,37.4,12.2,37.4,51.5C171,359.4,155.4,377.1,133.5,377.1"/>
	<path class="st0" d="M213.2,282l68.1,99.4c0,0,1.3,1.9,3,1.9h1.6V277.1c0,0-0.3-6.1,2-6.8c4.6-1.4,12.4-0.5,12.4-5.7
		c0-4.1-1.8-3-3.6-2.9c-4,0.2-9.5,1.9-16.3,2.3c-7.5,0.4-15.3-0.6-19.3,0.1c-1.1,0.2-2.9,1-2.9,3.3c0,2.6,2.5,4.2,5.2,3.5
		c4.5-1.1,10.3-1.6,12.2-0.2c1.8,1.3,1.5,7.7,1.5,7.7v62.9L275,338l-51-72.7c0,0-1.1-0.9-2.6-0.3c-1.5,0.6-8.1,1.1-12.6,1.1
		c-4.5,0-15.3-1-18.1-0.9c-2.4,0.1-4.3,0.8-4.3,4.1c0,3.3,3.3,3.9,5.3,3.9c1.3,0,8.2-0.7,10.5,0c2.5,0.7,2.1,4.9,2.1,4.9l0.1,93.7
		c0,0-0.1,1.8-0.9,2.7c-1.4,1.5-3.7,4.2-7,5.4c-3.3,1.2-4.8-0.3-7.5-0.3c-2.4,0-3.6,1.5-3.6,3.7c0,2.3,3.5,3.6,8,3.6
		c2.1,0,9.5-2.9,15.4-2.9c5.9,0,13,2.2,17.4,2.2h5.2c0,0,1.6-0.7,1.6-3.7c0-3-4.2-2.8-6-2.8c-1.8,0-5.3,0.3-9.6-1.4
		c-4.3-1.8-3.9-3.4-4-4.7c-0.1-1.3-0.1-3.3-0.1-3.3L213.2,282z"/>
	<path class="st0" d="M301.2,282.9c0,12.6,7.2,20.9,16.3,28.8c5.9,5,39.6,21.5,39.6,35.9c0,10.9-11.2,19.4-21.2,19.4
		c-10,0-20-3.7-25.1-8.7c-5-5-4.5-14.5-4.5-14.5s-0.5-4.7-3-4.7c-2.6,0-1.9,2.7-1.9,4.7c0,2.1,0.9,11.2,0.9,16.7
		c0,5.5-2,16.9-2,20.1c0,3.2,2,3.2,2.9,2.2c0.9-0.9,2.5-5.9,4.8-9.3c2.3-3.5,7.3-2.8,18.4,1.6c3.5,1.4,8.4,1.9,13.4,1.3
		c8.4-0.9,17.9-5.7,23.3-11.1c5.4-5.4,10.8-11.6,10.8-23.5c0-11.9-4.9-16.8-12.8-23.2c-6.8-5.5-42.9-24.6-42.9-39.8
		c0-11.2,4.3-18.3,18.2-18.3c13.9,0,22.5,10.4,22.5,15.7c0,5.3,0.5,10,2.5,11.3c2,1.3,3.4,1.1,4.2,0.2c0.8-0.8,0.5-41.2,0.5-41.2
		s-3.4-1.1-4.7,1.4c-1.4,2.4-2.5,9.3-3.9,10.6c-1.3,1.3-2.8,1.1-5.4-0.7c-2.6-1.8-10.2-5.5-18.9-5.5
		C325.8,252.6,301.2,259.9,301.2,282.9"/>
	<path class="st0" d="M385,260.9v90.4c0,0-0.6,6.4-4.4,9.4c-2.9,2.3-11.1,4.7-11.1,7.2c0,1.9,1.8,1.6,4.5,1
		c2.7-0.6,16.2-5.4,21.7-6.9c5.5-1.6,21.5-7.2,30.7-10.3c9.2-3.1,23.3-7.9,23.3-7.9v-29.2c0,0,0-3.6-2.5-3.4c-2.5,0.2-4.2,1.9-4,5.3
		c0.2,3.4-2.6,17.4-8.7,21.8c-5.4,3.9-30.3,10-30.3,10v-45.8l20.4-6.8c0,0,2-0.7,2.4,1.5c0.5,2.6-0.4,7.8-0.4,9.4
		c0,1.4,1.2,2.7,2.8,2.7c1.5,0,2.6-1.6,2.6-2.7c0.3-9.1,0-34.6,0-34.6s0.1-2.8-2.6-2.8c-1.7,0-2.7,2.4-2.8,4.5
		c-0.1,3.7,2.3,7.9-1.7,11.4c-1.6,1.5-21.3,7.5-21.3,7.5v-45.6l27.3-9.4c0,0,3.7-1.1,6,0.8c2.3,1.9,2.7,3.5,3.3,6.4
		c0.4,2,1.6,8.7,2.5,10.7c0.4,0.9,2,2.9,4,2.3c2.2-0.7,1.3-2.9,1.3-5.4c0-2-2-13-2.4-22c-0.1-1.4,0.9-4.1,0-5.1
		c-2.5-2.7-3.8-0.5-9.5,1.5c-16.7,5.8-53.2,17.5-58.1,18.7c-2.8,0.6-5,2.4-5,4.8c0,1.4,0.5,3.9,3.3,3.8c1.5,0,5-1.5,7.1-0.1
		C385.8,255.3,385,260.9,385,260.9"/>
	<path class="st0" d="M593.1,333.2c-16.1,0-24.9,9.6-24.9,17.1c0,12.1,11.2,11.4,11.2,11.4s1.9-13.7,14.1-13.7c8.1,0,14,7.7,14,16.9
		c0,12.8-4.7,22.7-20.8,22.7c-25.1,0-54.5-83.3-60.2-101.2c-4.4-14-12.9-19.3-28.2-21.2l0.2,3.8c0,0,11.8-6.7,14.2-8.3
		c5.6-3.6,19.6-11.2,19.6-29.9c0-18.7-24.5-29.6-39.3-24.4c-10.1,3.5-19.5,7.2-26.1,9.1c-3.5,1-13.2,3.8-14.5,5.3
		c-2.3,2.8-1.3,4.7-0.2,6c2.1,2.5,4.8-0.7,8.2-0.1c3.6,0.6,3.1,5.6,3.1,5.6v94c0,0-0.6,4.7-3.5,5.9c-5.3,2.3-8.7,3.7-8.2,7.3
		c0.3,2.8,3.3,4,12.7-0.7c6-3,8.4-4.8,11.7-5.7c5-1.4,13.3-3.3,18.9-5.4c5.6-2.1,11.7-3.2,10.6-7.3c-0.8-3-3.8-3.2-6.6-2
		c-3.2,1.4-9.2,3.9-13.3,3.2c-4.1-0.8-3.7-6.4-3.7-6.4v-39.7c0,0,7.2-3,13.1,0c5.9,3,9.8,11.4,17,33.1
		c14.6,44.6,39.9,87.7,75.1,87.7c15.2,0,33-11.6,33-33C620.2,344.3,605.1,333.2,593.1,333.2 M498,259.3c-5.4,3.2-16,6.4-16,6.4v-0.9
		v-44.3c0,0,12.4-5.4,15.7-5.7c9.8-0.9,18.5,7.4,16,20.2C511.2,247.8,504.5,255.3,498,259.3"/>
	<path class="st0" d="M596.4,239.1c-3-0.5-7.9-0.5-8.7-0.4l0.2,2.6c4.7,0,29.7-23.2,29.7-48.5c0-32.9-20.7-51.3-40.4-59.2
		c-49.8-19.9-93.9,12.6-93.9,43.7c0,15.5,11,23.2,22.6,23.2c7.3,0,17.6-6.5,17.6-19c0,0-6.9,6.6-11.7,7.7
		c-4.8,1.1-13.2-1.2-13.2-12.6s13.4-37.5,44-37.5c30.6,0,53.9,27.5,53.9,51.7s-8.4,37.6-17.8,43.1c-7.2,4.3-13.2,5.3-13.2,5.3V166
		c0,0-1.5,10.9-12.4,17.5c-8.2,4.9-19.6,7.7-21,9.6c-2.5,3.2,0.1,6.5,4,5.7c2.7-0.5,5.6-2.8,9.3-2.1c2.1,0.4,1.6,5.3,1.6,5.3V298
		c0,0-0.1,2.6-2.3,4.3c-2.3,1.7-4.4,0.9-5.6,2c-0.8,0.7-1.9,2.5-1.1,4.3c1.6,4,11.1,2.5,14.3,0.5c3.2-1.9,4.7-2.7,7.6-3.6
		c3-0.9,13.9-2.4,22.3-3.8c14.5-2.4,36.7-18.2,36.7-39.1C618.8,248,605.6,240.7,596.4,239.1 M581.6,289.4
		c-6.4,2.6-16.4,4.6-16.4,4.6v-43.8c6-1.6,18.7-6,26-3.3c7.2,2.6,9.1,6.7,9.1,15.6C600.3,271.4,592.1,285.1,581.6,289.4"/>
	<path class="st0" d="M816.1,251.9c-8.2,0-10.5,6.4-10.5,10.3c0,3.9,2.8,5.1,5.9,5.1c3,0,5.2-2.3,5.2-5.1v-2.8c0,0,3.3,0.9,3.3,7.7
		c0,6.8-4,20.2-18.8,20.2c-14.8,0-16.2-34.5-18.1-42.2c-1.9-7.7-2.3-21.1-11.8-26.4c-1.4-0.8-5-2.6-8.5-3.8
		c3.3-1.4,7.3-3.5,10.9-6.1c4.6-3.4,15.5-11.9,15.5-26.8c0-12.5-10.9-24.6-20.5-25.8c-9.6-1.2-25.5-1.4-38.9-0.2
		c-13.4,1.3-24.7,0.9-26.7,3.1c-2.3,2.6-0.6,6,3.1,6c3.4,0,8-0.4,10.5,0.2c3.3,0.7,3,6.6,3,6.6l0,91.3c0,0,0.1,7.3-5.8,8.2
		c-1.2-0.1-2.1-0.2-2.6-0.3c-2.6-0.7-6.2-4.4-7.5-9.2l-34.4-98.8c0,0-5.8,2.2-16.1,2.5c-17.5,0.5-31.9,4.7-31.9,16
		c0,6,3.2,11.3,10.4,11.3c5.8,0,6.6-6,6.6-6s-2.3,0.7-4.7,0.3c-3-0.5-4.4-2-4.4-5.3c0-6,10.9-6.4,17.3-7.2c2.7-0.3,4.6-0.9,4.6-0.9
		l-29.1,106.2c0,0-1.1,3.4-2.4,4.8c-1.7,2-4,2.4-6.1,2.9c-3.6,0.8-5.7,0.4-5.7,4.8c0,1.9,5.3,3.6,11.2,1.2c3.9-1.6,8.1-2.4,11.6-2.7
		c3.5-0.2,13.4-1.9,16.4-2.5c2.4-0.5,3.1-2.2,3.1-4c0-2.1-1.9-3.3-3.9-3c-3.1,0.4-10.9,3.3-14.8,2.9c-1.8-0.2-2.4-2.5-1.9-4
		c0.8-3,27.1-97.8,27.1-97.8l18.9,54.2c0,0,3.4,7.5,6.6,17.3c2.3,7.1,5.1,13.3,5.6,16.6c0.3,2.3-0.9,3.9-2.3,4.5
		c-2.8,1.3-4.7,0.5-9.3,0.9c-2.7,0.3-3.3,2.2-3.1,4.5c0.3,2.4,4.3,3.5,9.8,1.8c6.1-1.9,27.2-3.2,30.4-3.3c2-0.1,17.6-1,28.2-0.8
		c3.6,0.1,6.8,0.6,9.4,0.6c2.1,0,4.8-1.3,4.8-3.9c0-2.6-2.4-3.5-4.5-3.6c-1.9,0-3.5-0.1-5.2-0.1c-8.7,0-8.1-9.4-8.1-9.4v-40.5
		c0,0,17.8-2.6,21.5,9.5c3.7,12.2,9.2,44.9,13.8,51.9c4.6,7,12,12.5,26,12.5c14.1,0,30.7-10.7,30.7-25
		C830.3,258.9,824.3,251.9,816.1,251.9 M753.5,207.9c-5.6,4-15.2,2.7-15.2,2.7v-45.5c0,0,12.3-2.5,20,0.4c8.2,3,10.9,7.8,10.9,18.4
		C769.2,194.5,759.2,203.9,753.5,207.9"/>
	<path class="st0" d="M680.9,239c0,0-6.7-9.6-24.9-9.6s-24.2,14-24.2,18.8s4.6,8.5,6.4,1.1c1.6-6.3,9.4-10.9,16-10.9
		c16.2,0,22.8,5.5,28.3,15.6C688.6,265.1,680.9,239,680.9,239"/>
</g>
</svg>
